<svg width="14" height="18" viewBox="0 0 14 18" fill="none" xmlns="http://www.w3.org/2000/svg">
<path d="M7 0.875C6.30908 0.875 5.75 1.43408 5.75 2.125C5.75 2.17871 5.76221 2.22998 5.76953 2.28125C3.60889 2.83301 2 4.7959 2 7.125V12.75C2 13.104 1.729 13.375 1.375 13.375H0.75V14.625H5.24219C5.17139 14.8228 5.125 15.0303 5.125 15.25C5.125 16.2778 5.97217 17.125 7 17.125C8.02783 17.125 8.875 16.2778 8.875 15.25C8.875 15.0303 8.82861 14.8228 8.75781 14.625H13.25V13.375H12.625C12.271 13.375 12 13.104 12 12.75V7.30078C12 4.95215 10.4302 2.85742 8.23047 2.28125C8.23779 2.22998 8.25 2.17871 8.25 2.125C8.25 1.43408 7.69092 0.875 7 0.875ZM6.72656 3.375C6.81689 3.36768 6.90723 3.375 7 3.375C7.03906 3.375 7.07812 3.375 7.11719 3.375C9.1582 3.43603 10.75 5.22559 10.75 7.30078V12.75C10.75 12.9697 10.7964 13.1772 10.8672 13.375H3.13281C3.20361 13.1772 3.25 12.9697 3.25 12.75V7.125C3.25 5.14014 4.77832 3.5166 6.72656 3.375ZM7 14.625C7.35156 14.625 7.625 14.8984 7.625 15.25C7.625 15.6016 7.35156 15.875 7 15.875C6.64844 15.875 6.375 15.6016 6.375 15.25C6.375 14.8984 6.64844 14.625 7 14.625Z" fill="#168FE7"/>
</svg>
