<svg width="20" height="20" viewBox="0 0 15 15" fill="none" xmlns="http://www.w3.org/2000/svg">
<path d="M7.50586 3C5.15479 3 3.03259 3.97595 1.5 5.53418L2.15918 6.19336C3.52148 4.80542 5.41296 3.9375 7.50586 3.9375C9.59875 3.9375 11.4902 4.80542 12.8525 6.19336L13.5117 5.53418C11.9791 3.97595 9.85693 3 7.50586 3ZM7.50586 5.34375C5.79932 5.34375 4.26306 6.05603 3.15527 7.18945L3.81445 7.84863C4.75195 6.8855 6.05933 6.28125 7.50586 6.28125C8.95239 6.28125 10.2598 6.8855 11.1973 7.84863L11.8564 7.18945C10.7487 6.05603 9.2124 5.34375 7.50586 5.34375ZM7.50586 7.6875C6.44568 7.6875 5.49353 8.13611 4.81055 8.84473L5.46973 9.50391C5.98242 8.96558 6.70386 8.625 7.50586 8.625C8.30786 8.625 9.0293 8.96558 9.54199 9.50391L10.2012 8.84473C9.52002 8.13611 8.56604 7.6875 7.50586 7.6875ZM7.50586 10.0312C7.09204 10.0312 6.724 10.2144 6.46582 10.5L7.50586 11.54L8.5459 10.5C8.28772 10.2144 7.91968 10.0312 7.50586 10.0312Z" fill="white"/>
<path d="M12 2.25L12.5182 2.79221L3.31873 11.5839L2.80055 11.0417L12 2.25Z" fill="white"/>
</svg>
