<svg width="14" height="18" viewBox="0 0 14 18" fill="none" xmlns="http://www.w3.org/2000/svg">
<path fill-rule="evenodd" clip-rule="evenodd" d="M12.22 9.78333L9.52002 8.43333C10.595 7.6 11.2867 6.3 11.2867 4.83333C11.2867 2.30833 9.22835 0.25 6.70335 0.25C4.17835 0.25 2.12002 2.30833 2.12002 4.83333C2.12002 6.60833 3.13669 8.15 4.62002 8.90833V11.625L3.08669 11.3L3.00335 11.2833C2.92002 11.2667 2.83669 11.2583 2.73669 11.2583C2.29502 11.2583 1.87835 11.4333 1.56169 11.75L0.39502 12.9333L4.63669 17.175C4.99502 17.5417 5.49502 17.75 6.01169 17.75H11.2617C12.0784 17.75 12.77 17.1667 12.9034 16.3583L13.57 12.4333C13.7534 11.35 13.2117 10.2833 12.22 9.78333ZM11.9284 12.1583L11.2617 16.0833H6.01169C5.93669 16.0833 5.87002 16.05 5.81169 16L2.74502 12.9333L6.28669 13.675V4.83333C6.28669 4.6 6.47002 4.41667 6.70335 4.41667C6.93669 4.41667 7.12002 4.6 7.12002 4.83333V9.83333H8.58669L11.47 11.275C11.8034 11.4417 11.9867 11.8 11.9284 12.1583ZM6.70335 1.91667C5.09502 1.91667 3.78669 3.225 3.78669 4.83333C3.78669 5.625 4.10335 6.34167 4.62002 6.86667V4.83333C4.62002 3.68333 5.55335 2.75 6.70335 2.75C7.85335 2.75 8.78669 3.68333 8.78669 4.83333V6.86667C9.30335 6.34167 9.62002 5.625 9.62002 4.83333C9.62002 3.225 8.31169 1.91667 6.70335 1.91667Z" fill="#0066B2"/>
</svg>
