<svg width="20" height="20" viewBox="0 0 20 20" fill="none" xmlns="http://www.w3.org/2000/svg">
<path fill-rule="evenodd" clip-rule="evenodd" d="M11 2.062C14.619 2.513 17.486 5.381 17.938 9H19C19.55 9 20 9.45 20 10C20 10.55 19.55 11 19 11H17.938C17.487 14.619 14.619 17.486 11 17.938V19C11 19.55 10.55 20 10 20C9.45 20 9 19.55 9 19V17.938C5.381 17.487 2.514 14.619 2.062 11H1C0.45 11 0 10.55 0 10C0 9.45 0.45 9 1 9H2.062C2.514 5.381 5.381 2.513 9 2.062V1C9 0.45 9.45 0 10 0C10.55 0 11 0.45 11 1V2.062ZM10 7C11.657 7 13 8.343 13 10C13 11.657 11.657 13 10 13C8.343 13 7 11.657 7 10C7 8.343 8.343 7 10 7ZM10 4C13.314 4 16 6.686 16 10C16 13.314 13.314 16 10 16C6.686 16 4 13.314 4 10C4 6.686 6.686 4 10 4Z" fill="#0066B2"/>
</svg>
