<svg width="14" height="18" viewBox="0 0 9 13" fill="none" xmlns="http://www.w3.org/2000/svg">
<path d="M4.5 0.40625C2.17639 0.40625 0.28125 2.30139 0.28125 4.625C0.28125 5.28418 0.548584 6.04041 0.911133 6.86621C1.27368 7.69202 1.7406 8.56909 2.21484 9.38574C3.16333 11.0209 4.11914 12.3887 4.11914 12.3887L4.5 12.9453L4.88086 12.3887C4.88086 12.3887 5.83667 11.0209 6.78516 9.38574C7.2594 8.56909 7.72632 7.69202 8.08887 6.86621C8.45142 6.04041 8.71875 5.28418 8.71875 4.625C8.71875 2.30139 6.82361 0.40625 4.5 0.40625ZM4.5 1.34375C6.31824 1.34375 7.78125 2.80676 7.78125 4.625C7.78125 5.00037 7.57983 5.71082 7.23926 6.48535C6.89868 7.25989 6.4281 8.11865 5.96484 8.91699C5.22876 10.1877 4.771 10.8597 4.5 11.2607C4.229 10.8597 3.77124 10.1877 3.03516 8.91699C2.5719 8.11865 2.10132 7.25989 1.76074 6.48535C1.42017 5.71082 1.21875 5.00037 1.21875 4.625C1.21875 2.80676 2.68176 1.34375 4.5 1.34375ZM4.5 3.6875C3.98181 3.6875 3.5625 4.10681 3.5625 4.625C3.5625 5.14319 3.98181 5.5625 4.5 5.5625C5.01819 5.5625 5.4375 5.14319 5.4375 4.625C5.4375 4.10681 5.01819 3.6875 4.5 3.6875Z" fill="#1C1C1C"/>
</svg>
