<svg width="21" height="17" viewBox="0 0 21 17" fill="none" xmlns="http://www.w3.org/2000/svg">
<path d="M6.98438 0.6875L6.74023 1.00488L5.8125 2.25H0.34375V16.3125H20.6562V2.25H15.1875L14.2598 1.00488L14.0156 0.6875H6.98438ZM7.76562 2.25H13.2344L14.1621 3.49512L14.4062 3.8125H19.0938V14.75H1.90625V3.8125H6.59375L6.83789 3.49512L7.76562 2.25ZM4.25 4.59375C3.8197 4.59375 3.46875 4.9447 3.46875 5.375C3.46875 5.8053 3.8197 6.15625 4.25 6.15625C4.6803 6.15625 5.03125 5.8053 5.03125 5.375C5.03125 4.9447 4.6803 4.59375 4.25 4.59375ZM10.5 4.59375C7.92126 4.59375 5.8125 6.70251 5.8125 9.28125C5.8125 11.86 7.92126 13.9688 10.5 13.9688C13.0787 13.9688 15.1875 11.86 15.1875 9.28125C15.1875 6.70251 13.0787 4.59375 10.5 4.59375ZM10.5 6.15625C12.2365 6.15625 13.625 7.5448 13.625 9.28125C13.625 11.0177 12.2365 12.4062 10.5 12.4062C8.76355 12.4062 7.375 11.0177 7.375 9.28125C7.375 7.5448 8.76355 6.15625 10.5 6.15625Z" fill="white"/>
</svg>
