<svg width="290" height="220" viewBox="0 0 290 220" fill="none" xmlns="http://www.w3.org/2000/svg">
<rect width="290" height="155" fill="#5C8AEA"/>
<path d="M158.118 183C90.3529 169.4 24.4706 181.333 0 189V128H320V201C275.765 213 242.824 200 158.118 183Z" fill="#5C8AEA"/>
<path fill-rule="evenodd" clip-rule="evenodd" d="M151.132 181.593C153.457 182.002 155.786 182.44 158.118 182.908C175.964 186.489 191.512 189.893 205.352 192.923C257.205 204.276 285.084 210.379 320 200.907V180.067C311.283 176.218 295.782 171.17 270.118 165.907C246.093 160.981 224.144 166.484 200.722 172.356C185.186 176.251 169.001 180.309 151.132 181.593ZM100.232 176.783C53.6116 164.646 18.5289 168.075 0 173.171V188.908C17.3265 183.479 55.4144 175.912 100.232 176.783Z" fill="#749CF1"/>
<path fill-rule="evenodd" clip-rule="evenodd" d="M121.035 177.892C110.797 174.472 100.812 171.666 91.2239 170.275C63.0448 166.188 25.3134 172.261 0 183.68V189C19.9539 182.749 67.4431 173.66 121.035 177.892ZM320 201V192.12C309.493 189.141 278.83 186.46 240.239 199.567C239.716 199.745 239.192 199.916 238.668 200.08C270.85 206.389 293.38 208.221 320 201Z" fill="#A6C2FC"/>
</svg>
