<svg width="21" height="21" viewBox="0 0 21 21" fill="none" xmlns="http://www.w3.org/2000/svg">
<path d="M8.30273 0.34375L8.18066 0.978516L7.7168 3.29785C6.97217 3.59082 6.30078 4.00281 5.69043 4.49414L3.41992 3.71289L2.80957 3.51758L2.49219 4.0791L0.929688 6.76465L0.612305 7.32617L1.07617 7.74121L2.83398 9.2793C2.7699 9.67908 2.6875 10.0789 2.6875 10.5C2.6875 10.9211 2.7699 11.3209 2.83398 11.7207L1.07617 13.2588L0.612305 13.6738L0.929688 14.2354L2.49219 16.9209L2.80957 17.4824L3.41992 17.2871L5.69043 16.5059C6.30078 16.9972 6.97217 17.4092 7.7168 17.7021L8.18066 20.0215L8.30273 20.6562H12.6973L12.8193 20.0215L13.2832 17.7021C14.0278 17.4092 14.6992 16.9972 15.3096 16.5059L17.5801 17.2871L18.1904 17.4824L18.5078 16.9209L20.0703 14.2354L20.3877 13.6738L19.9238 13.2588L18.166 11.7207C18.2301 11.3209 18.3125 10.9211 18.3125 10.5C18.3125 10.0789 18.2301 9.67908 18.166 9.2793L19.9238 7.74121L20.3877 7.32617L20.0703 6.76465L18.5078 4.0791L18.1904 3.51758L17.5801 3.71289L15.3096 4.49414C14.6992 4.00281 14.0278 3.59082 13.2832 3.29785L12.8193 0.978516L12.6973 0.34375H8.30273ZM9.57227 1.90625H11.4277L11.8184 3.93262L11.916 4.39648L12.3555 4.54297C13.2435 4.82068 14.0492 5.29065 14.7236 5.91016L15.0654 6.22754L15.5049 6.08105L17.4824 5.39746L18.4102 6.98438L16.8477 8.37598L16.4814 8.66895L16.6035 9.13281C16.7042 9.57837 16.75 10.0331 16.75 10.5C16.75 10.9669 16.7042 11.4216 16.6035 11.8672L16.5059 12.3311L16.8477 12.624L18.4102 14.0156L17.4824 15.6025L15.5049 14.9189L15.0654 14.7725L14.7236 15.0898C14.0492 15.7094 13.2435 16.1793 12.3555 16.457L11.916 16.6035L11.8184 17.0674L11.4277 19.0938H9.57227L9.18164 17.0674L9.08398 16.6035L8.64453 16.457C7.75647 16.1793 6.95081 15.7094 6.27637 15.0898L5.93457 14.7725L5.49512 14.9189L3.51758 15.6025L2.58984 14.0156L4.15234 12.624L4.51855 12.3311L4.39648 11.8672C4.29578 11.4216 4.25 10.9669 4.25 10.5C4.25 10.0331 4.29578 9.57837 4.39648 9.13281L4.51855 8.66895L4.15234 8.37598L2.58984 6.98438L3.51758 5.39746L5.49512 6.08105L5.93457 6.22754L6.27637 5.91016C6.95081 5.29065 7.75647 4.82068 8.64453 4.54297L9.08398 4.39648L9.18164 3.93262L9.57227 1.90625ZM10.5 6.59375C8.35156 6.59375 6.59375 8.35156 6.59375 10.5C6.59375 12.6484 8.35156 14.4062 10.5 14.4062C12.6484 14.4062 14.4062 12.6484 14.4062 10.5C14.4062 8.35156 12.6484 6.59375 10.5 6.59375ZM10.5 8.15625C11.8031 8.15625 12.8438 9.1969 12.8438 10.5C12.8438 11.8031 11.8031 12.8438 10.5 12.8438C9.1969 12.8438 8.15625 11.8031 8.15625 10.5C8.15625 9.1969 9.1969 8.15625 10.5 8.15625Z" fill="white"/>
</svg>
