<svg width="150" height="150" viewBox="0 0 150 150" fill="none" xmlns="http://www.w3.org/2000/svg">
<path d="M112.5 112.5C133.211 91.7893 133.211 58.2107 112.5 37.5C91.7893 16.7893 58.2107 16.7893 37.5 37.5C16.7893 58.2107 16.7893 91.7893 37.5 112.5C58.2107 133.211 91.7893 133.211 112.5 112.5Z" fill="white" stroke="#B7BEC6" stroke-width="6" stroke-miterlimit="10" stroke-linecap="round" stroke-linejoin="round"/>
<path d="M97.9116 63.0557C97.3382 63.0557 96.7649 63.0557 96.0482 63.1991C94.7582 52.7357 86.0148 44.709 75.2648 44.709C65.6614 44.709 57.6347 51.159 55.0547 59.9024C47.1714 60.7624 41.1514 67.4991 41.1514 75.5258C41.1514 84.2691 48.1747 91.2925 56.9181 91.2925H97.9116C105.652 91.2925 111.958 84.9858 111.958 77.2458C111.958 69.5058 105.652 63.0557 97.9116 63.0557Z" fill="#263238"/>
<path d="M71.395 102.902L65.5183 92.7256L59.6416 102.902H62.6516V110.929H68.385V102.902H71.395Z" fill="#263238"/>
<path d="M78.1318 100.896L84.0085 110.929L89.8852 100.896H86.8752V92.7256H81.1419V100.896H78.1318Z" fill="#263238"/>
<path d="M30.5449 101.899L116.545 43.1318" stroke="#B7BEC6" stroke-width="6" stroke-miterlimit="10" stroke-linecap="round" stroke-linejoin="round"/>
</svg>
