<svg width="60" height="50" viewBox="0 0 60 50" fill="none" xmlns="http://www.w3.org/2000/svg">
<path d="M54.407 25.4625L59.8477 20.0218C49.7008 9.87486 35.7182 6.01197 22.5789 8.29706L29.5974 15.3156C38.5745 15.2612 47.5789 18.6344 54.407 25.4625ZM21.7628 41.7845L29.9238 49.9456L38.0849 41.7845C33.5963 37.2688 26.2786 37.2688 21.7628 41.7845ZM48.9663 30.9032C46.0283 27.9652 42.5462 25.8705 38.8466 24.5647L47.062 32.7802L48.9663 30.9032ZM6.55604 0L2.72035 3.83569L11.0174 12.1328C7.0457 14.1186 3.31882 16.7301 0 20.0218L5.4407 25.4625C8.78672 22.1164 12.6496 19.5865 16.7845 17.8999L22.8781 23.9935C18.4712 25.1632 14.3362 27.4755 10.8814 30.9032L16.3221 36.3438C19.9946 32.6714 24.7824 30.7943 29.6246 30.7399L48.8847 50L52.7203 46.1643L6.55604 0Z" fill="#B7BEC6"/>
</svg>
