<svg width="46" height="50" viewBox="0 0 46 50" fill="none" xmlns="http://www.w3.org/2000/svg">
<path d="M25 5C31.9 5 37.5 10.6 37.5 17.5C37.5 20.15 36.525 23.3 35 26.55L38.725 30.275C40.925 25.9 42.5 21.425 42.5 17.5C42.5 7.825 34.675 0 25 0C20.4 0 16.25 1.775 13.125 4.65L16.7 8.225C18.9 6.25 21.8 5 25 5ZM25 11.25C23.525 11.25 22.175 11.775 21.1 12.65L29.85 21.4C30.725 20.325 31.25 18.975 31.25 17.5C31.25 14.05 28.45 11.25 25 11.25ZM3.525 2.15L0 5.675L7.95 13.625C7.675 14.875 7.5 16.175 7.5 17.5C7.5 30.625 25 50 25 50C25 50 29.175 45.375 33.45 39.125L41.825 47.5L45.35 43.975L3.525 2.15ZM25 42.2C19.975 35.75 13 25.35 12.55 18.225L29.85 35.525C28.225 37.975 26.525 40.25 25 42.2Z" fill="#B7BEC6"/>
</svg>
