<svg width="80" height="80" viewBox="0 0 80 80" fill="none" xmlns="http://www.w3.org/2000/svg">
<rect width="80" height="80" rx="15" fill="#243B51" fill-opacity="0.15"/>
<path d="M56 33V51C56 52.6562 54.6562 54 53 54H27C25.3438 54 24 52.6562 24 51V33C24 31.3438 25.3438 30 27 30H32.5L33.2688 27.9437C33.7063 26.775 34.825 26 36.075 26H43.9188C45.1688 26 46.2875 26.775 46.725 27.9437L47.5 30H53C54.6562 30 56 31.3438 56 33ZM47.5 42C47.5 37.8625 44.1375 34.5 40 34.5C35.8625 34.5 32.5 37.8625 32.5 42C32.5 46.1375 35.8625 49.5 40 49.5C44.1375 49.5 47.5 46.1375 47.5 42ZM45.5 42C45.5 45.0312 43.0312 47.5 40 47.5C36.9688 47.5 34.5 45.0312 34.5 42C34.5 38.9688 36.9688 36.5 40 36.5C43.0312 36.5 45.5 38.9688 45.5 42Z" fill="#243B51" fill-opacity="0.15"/>
</svg>
