<?xml version="1.0" standalone="no"?>
<!DOCTYPE svg PUBLIC "-//W3C//DTD SVG 20010904//EN"
 "http://www.w3.org/TR/2001/REC-SVG-20010904/DTD/svg10.dtd">
<svg version="1.0" xmlns="http://www.w3.org/2000/svg"
 width="280.000000pt" height="180.000000pt" viewBox="0 0 280.000000 180.000000"
 preserveAspectRatio="xMidYMid meet">

<g transform="translate(0.000000,180.000000) scale(0.100000,-0.100000)"
fill="#000000" stroke="none">
<path d="M1480 1585 c-131 -36 -246 -116 -314 -220 l-37 -55 -42 7 c-72 13
-168 6 -230 -17 -113 -42 -193 -127 -233 -248 l-22 -66 -53 -13 c-30 -8 -72
-24 -94 -38 -58 -34 -132 -117 -163 -183 -24 -50 -27 -69 -27 -157 0 -88 3
-107 27 -158 54 -116 168 -205 290 -227 37 -7 315 -10 810 -8 753 3 753 3 812
26 350 132 449 558 191 817 -63 63 -159 118 -229 131 -32 5 -40 12 -52 43 -56
140 -107 211 -199 277 -37 26 -97 58 -134 71 -85 32 -222 40 -301 18z m303
-133 c117 -58 215 -180 233 -291 9 -58 22 -70 87 -81 169 -27 296 -153 328
-325 29 -160 -69 -338 -228 -413 l-58 -27 -790 0 -790 0 -40 22 c-56 30 -110
89 -136 148 -75 167 43 372 224 392 78 8 93 21 100 88 11 106 98 214 197 244
57 17 133 13 194 -10 69 -25 84 -19 122 58 33 68 112 151 175 184 79 40 119
49 220 46 85 -2 103 -6 162 -35z"/>
<path d="M1333 1119 c-110 -21 -194 -85 -243 -181 -36 -73 -39 -122 -9 -138
38 -21 66 -5 83 48 36 108 117 166 231 167 59 0 77 -4 118 -28 l49 -29 -28
-29 c-17 -18 -24 -32 -18 -38 5 -4 54 -20 109 -35 55 -15 108 -29 118 -32 11
-4 17 0 17 12 0 27 -62 244 -70 244 -3 0 -17 -11 -30 -25 l-23 -24 -43 30
c-77 52 -177 75 -261 58z"/>
<path d="M1656 734 c-9 -8 -16 -22 -16 -30 0 -22 -29 -75 -59 -107 -77 -84
-223 -99 -306 -32 l-30 23 24 26 c15 16 21 30 15 35 -12 12 -236 72 -243 66
-6 -6 36 -176 56 -224 l13 -34 30 28 30 29 22 -21 c49 -45 110 -66 198 -71
106 -5 176 18 249 84 79 71 125 187 91 229 -16 20 -54 19 -74 -1z"/>
</g>
</svg>
