<?xml version="1.0" standalone="no"?>
<!DOCTYPE svg PUBLIC "-//W3C//DTD SVG 20010904//EN"
 "http://www.w3.org/TR/2001/REC-SVG-20010904/DTD/svg10.dtd">
<svg version="1.0" xmlns="http://www.w3.org/2000/svg"
 width="225.000000pt" height="225.000000pt" viewBox="0 0 225.000000 225.000000"
 preserveAspectRatio="xMidYMid meet">

<g transform="translate(0.000000,225.000000) scale(0.100000,-0.100000)"
fill="#000000" stroke="none">
<path d="M1055 1963 c-200 -26 -384 -172 -450 -356 -21 -58 -24 -61 -72 -77
-68 -22 -115 -53 -162 -107 -36 -40 -81 -133 -81 -166 0 -7 -22 -22 -49 -35
-116 -53 -208 -175 -233 -310 -40 -217 117 -439 342 -482 71 -14 1479 -14
1550 0 223 42 378 258 342 474 -14 86 -50 163 -102 220 -41 44 -41 46 -35 98
20 161 -82 349 -227 420 -64 32 -164 51 -221 43 -41 -6 -42 -5 -76 45 -108
162 -329 259 -526 233z m171 -147 c122 -32 231 -124 285 -240 l30 -64 62 20
c222 70 420 -134 349 -359 l-20 -63 33 -20 c18 -11 51 -40 72 -63 138 -149 66
-395 -131 -452 -46 -13 -153 -15 -807 -13 l-754 3 -53 30 c-59 32 -91 66 -125
129 -31 59 -31 184 1 243 43 81 124 141 215 158 37 7 37 7 37 59 0 52 27 124
58 160 30 33 113 66 168 66 l51 0 12 63 c18 89 53 159 110 220 108 114 265
161 407 123z"/>
<path d="M1165 1538 c-11 -6 -23 -16 -27 -22 -4 -6 -8 -119 -8 -252 0 -221 2
-242 18 -257 25 -22 75 -21 95 1 15 16 17 49 17 258 0 131 -4 244 -8 250 -8
12 -46 34 -59 34 -4 0 -17 -6 -28 -12z"/>
<path d="M1147 822 c-39 -42 -8 -114 48 -114 57 0 88 78 47 115 -25 22 -75 21
-95 -1z"/>
</g>
</svg>
