<svg width="16" height="18" viewBox="0 0 16 18" fill="none" xmlns="http://www.w3.org/2000/svg">
<path fill-rule="evenodd" clip-rule="evenodd" d="M1.82355 14.7655C1.14085 14.7655 0.588257 14.2121 0.588257 13.5302V13.5294C0.588257 13.1292 0.779316 12.7726 1.07496 12.5478C1.16226 12.4728 1.75026 12.0372 1.66379 12.1105C1.83508 11.9672 1.9652 11.8535 2.09037 11.7391C2.7352 11.1469 3.05885 10.2402 3.05885 9.82353V6.52942C3.05885 4.21694 4.64743 2.27589 6.79273 1.73647C6.91296 1.18059 7.4079 0.764709 8.00002 0.764709C8.59214 0.764709 9.08708 1.18059 9.20732 1.73647C11.3526 2.27589 12.9412 4.21694 12.9412 6.52942V9.82353C12.9412 10.2402 13.2648 11.1469 13.9097 11.7391C14.0348 11.8535 14.165 11.9672 14.3363 12.1105C14.2498 12.0372 14.8378 12.4728 14.9251 12.5478C15.2207 12.7726 15.4118 13.1292 15.4118 13.5294V13.5302C15.4118 14.2121 14.8592 14.7655 14.1765 14.7655H10.4706C10.4706 16.1293 9.36461 17.2353 8.00002 17.2353C6.63543 17.2353 5.52943 16.1293 5.52943 14.7655H1.82355ZM8.82355 14.7655H7.17649C7.17649 15.2201 7.54543 15.5882 8.00002 15.5882C8.45461 15.5882 8.82355 15.2201 8.82355 14.7655ZM3.01932 13.1185H12.9807C12.919 13.0641 12.8572 13.0089 12.7963 12.9529C11.9991 12.2217 11.2941 10.9279 11.2941 9.82353V6.52942C11.2941 4.70942 9.82002 3.2353 8.00002 3.2353C6.18002 3.2353 4.7059 4.71024 4.7059 6.52942V9.82353C4.7059 10.9279 4.00096 12.2217 3.20379 12.9529C3.14285 13.0089 3.08108 13.0641 3.01932 13.1185Z" fill="white"/>
</svg>
