<svg width="22" height="20" viewBox="0 0 22 20" fill="none" xmlns="http://www.w3.org/2000/svg">
<path d="M19.0733 2.01165C18.84 1.32331 18.1867 0.833313 17.4167 0.833313H4.58333C3.81333 0.833313 3.17167 1.32331 2.92667 2.01165L0.5 8.99998V18.3333C0.5 18.975 1.025 19.5 1.66667 19.5H2.83333C3.475 19.5 4 18.975 4 18.3333V17.1666H18V18.3333C18 18.975 18.525 19.5 19.1667 19.5H20.3333C20.975 19.5 21.5 18.975 21.5 18.3333V8.99998L19.0733 2.01165ZM4.99167 3.16665H16.9967L18.2567 6.79498H3.73167L4.99167 3.16665ZM19.1667 14.8333H2.83333V8.99998H19.1667V14.8333Z" fill="#37A6FF"/>
<path d="M5.75 13.6666C6.7165 13.6666 7.5 12.8831 7.5 11.9166C7.5 10.9501 6.7165 10.1666 5.75 10.1666C4.7835 10.1666 4 10.9501 4 11.9166C4 12.8831 4.7835 13.6666 5.75 13.6666Z" fill="#37A6FF"/>
<path d="M16.25 13.6666C17.2165 13.6666 18 12.8831 18 11.9166C18 10.9501 17.2165 10.1666 16.25 10.1666C15.2835 10.1666 14.5 10.9501 14.5 11.9166C14.5 12.8831 15.2835 13.6666 16.25 13.6666Z" fill="#37A6FF"/>
</svg>
