<svg width="19" height="22" viewBox="0 0 19 22" fill="none" xmlns="http://www.w3.org/2000/svg">
<path d="M15.9846 13.6484V9.84837C15.9846 7.02579 14.1782 4.56453 11.6911 3.64518C11.7201 3.5 11.7362 3.35164 11.7362 3.20323C11.7363 1.98711 10.7492 1 9.53306 1C8.31694 1 7.32983 1.98711 7.32983 3.20323C7.32983 3.34841 7.34594 3.49354 7.37174 3.63225C6.51693 3.93549 5.7266 4.41611 5.05242 5.06773C3.78146 6.29354 3.08148 7.94191 3.08148 9.70965V13.6484C3.08148 13.7871 2.96857 13.9032 2.82662 13.9032C1.63631 13.9032 0.620156 14.8 0.510476 15.9419C0.449172 16.5774 0.658888 17.2097 1.08791 17.6806C1.5137 18.1484 2.1234 18.4194 2.75885 18.4194H6.64918C6.81047 19.8678 8.04275 21 9.53306 21C11.0234 21 12.2557 19.8678 12.4169 18.4194H16.3073C16.9428 18.4194 17.5524 18.1484 17.9782 17.6806C18.404 17.2097 18.6137 16.5774 18.5556 15.9419C18.446 14.8 17.4266 13.9032 16.2395 13.9032C16.0976 13.9032 15.9846 13.7903 15.9846 13.6484ZM9.53306 2.29029C10.0363 2.29029 10.4459 2.69998 10.4459 3.20318C10.4459 3.24509 10.4395 3.28382 10.433 3.32573C10.2137 3.29346 9.99106 3.27089 9.76847 3.26443C9.38459 3.2515 9.00718 3.27736 8.633 3.32896C8.62653 3.28705 8.62007 3.24832 8.62007 3.20641C8.62018 2.69998 9.02986 2.29029 9.53306 2.29029ZM9.53306 19.7096C8.75566 19.7096 8.10405 19.1547 7.9524 18.4193H11.1137C10.9621 19.1548 10.3105 19.7096 9.53306 19.7096ZM17.2718 16.0645C17.2976 16.3419 17.2105 16.6096 17.0266 16.8128C16.8363 17.0161 16.5846 17.129 16.3073 17.129H2.7589C2.48147 17.129 2.2299 17.016 2.04276 16.8128C1.85566 16.6096 1.76856 16.3419 1.79436 16.0645C1.8395 15.5774 2.29438 15.1935 2.82662 15.1935C3.67825 15.1935 4.37177 14.5 4.37177 13.6484V9.70965C4.37177 8.29675 4.93304 6.97742 5.94919 5.99677C6.92015 5.05808 8.18469 4.54836 9.53306 4.54836C9.5976 4.54836 9.65885 4.54836 9.72338 4.5516C12.4621 4.64835 14.6943 7.02579 14.6943 9.84837V13.6484C14.6943 14.5 15.3879 15.1935 16.2395 15.1935C16.7717 15.1935 17.2234 15.5774 17.2718 16.0645Z" fill="#37A6FF" stroke="#37A6FF" stroke-width="0.5"/>
</svg>
