<?xml version="1.0" encoding="UTF-8"?>
<!DOCTYPE svg PUBLIC "-//W3C//DTD SVG 1.1//EN" "http://www.w3.org/Graphics/SVG/1.1/DTD/svg11.dtd">
<!-- Creator: CorelDRAW 2017 -->
<svg xmlns="http://www.w3.org/2000/svg" xml:space="preserve" width="24px" height="24px" version="1.1" shape-rendering="geometricPrecision" text-rendering="geometricPrecision" image-rendering="optimizeQuality" fill-rule="evenodd" clip-rule="evenodd"
viewBox="0 0 24 24"
 xmlns:xlink="http://www.w3.org/1999/xlink">
 <g id="Layer_x0020_1">
  <metadata id="CorelCorpID_0Corel-Layer"/>
  <rect fill="none" width="24" height="24"/>
  <path fill="#d4e3f6" d="M6.056 11l0.762 -3.226 0.002 -0.009 0 0c0.105,-0.439 0.501,-0.766 0.972,-0.766l0.026 0.001 8.364 0 0.026 -0.001c0.471,0 0.867,0.327 0.972,0.766l0 0 0.002 0.009 0.762 3.226 -11.888 0zm14.944 1c0,-0.55 -0.45,-1 -1,-1l0 0 -1.046 -4.43 -0.001 0c-0.196,-0.898 -0.996,-1.57 -1.953,-1.57l0 0 -10 0 0 0c-0.957,0 -1.757,0.672 -1.953,1.57l-0.001 0 -1.046 4.43 0 0c-0.55,0 -1,0.45 -1,1 0,2.667 0,5.334 0,8 0,0.55 0.45,1 1,1l1 0c0.55,0 1,-0.45 1,-1l0 -1.001 12.001 0 0 1.001c0,0.55 0.45,1 1,1l1 0c0.55,0 1,-0.45 1,-1 0,-2.666 -0.001,-5.333 -0.001,-8zm-3.499 1c0.828,0 1.5,0.672 1.5,1.5 0,0.829 -0.672,1.5 -1.5,1.5 -0.829,0 -1.5,-0.671 -1.5,-1.5 0,-0.828 0.671,-1.5 1.5,-1.5zm-11.001 0c0.829,0 1.5,0.672 1.5,1.5 0,0.829 -0.671,1.5 -1.5,1.5 -0.828,0 -1.5,-0.671 -1.5,-1.5 0,-0.828 0.672,-1.5 1.5,-1.5z"/>
 </g>
</svg>
