<?xml version="1.0" encoding="UTF-8"?>
<!DOCTYPE svg PUBLIC "-//W3C//DTD SVG 1.1//EN" "http://www.w3.org/Graphics/SVG/1.1/DTD/svg11.dtd">
<!-- Creator: CorelDRAW 2017 -->
<svg xmlns="http://www.w3.org/2000/svg" xml:space="preserve" width="24px" height="24px" version="1.1" shape-rendering="geometricPrecision" text-rendering="geometricPrecision" image-rendering="optimizeQuality" fill-rule="evenodd" clip-rule="evenodd"
viewBox="0 0 24 24"
 xmlns:xlink="http://www.w3.org/1999/xlink">
 <g id="Layer_x0020_1">
  <metadata id="CorelCorpID_0Corel-Layer"/>
  <rect fill="none" width="24" height="24"/>
  <path fill="#d4e3f6" d="M8.829 16.999c0.111,0.313 0.171,0.65 0.171,1 0,1.657 -1.343,3 -3,3 -1.657,0 -3,-1.343 -3,-3 0,-0.35 0.06,-0.687 0.171,-1l-1.171 0 0 -2c0,-1.631 0.792,-3.085 2.009,-4l-1.01 0c-0.549,0 -0.999,-0.449 -0.999,-0.999l0 -0.001c0,-0.55 0.45,-1 0.999,-1l8.001 0c0.55,0 1,0.45 1,1l0 0 0 5 1.93 0 2.839 -2.84 -1.65 -6.16 -3.118 0 0 -2 4.652 0 2.347 8.758 -4.243 4.243 0 -0.001 -5.928 0zm10.172 -2c1.657,0 3,1.343 3,3 0,1.657 -1.343,3 -3,3 -1.657,0 -3,-1.343 -3,-3 0,-1.657 1.343,-3 3,-3zm0 2c0.552,0 1,0.448 1,1 0,0.553 -0.448,1 -1,1 -0.553,0 -1,-0.447 -1,-1 0,-0.552 0.447,-1 1,-1zm-12.975 0l-0.052 0c-0.54,0.014 -0.974,0.456 -0.974,1 0,0.553 0.448,1 1,1 0.553,0 1.001,-0.447 1.001,-1 0,-0.544 -0.434,-0.986 -0.975,-1z"/>
 </g>
</svg>
