<?xml version="1.0" encoding="UTF-8"?>
<!DOCTYPE svg PUBLIC "-//W3C//DTD SVG 1.1//EN" "http://www.w3.org/Graphics/SVG/1.1/DTD/svg11.dtd">
<!-- Creator: CorelDRAW 2017 -->
<svg xmlns="http://www.w3.org/2000/svg" xml:space="preserve" width="24px" height="24px" version="1.1" shape-rendering="geometricPrecision" text-rendering="geometricPrecision" image-rendering="optimizeQuality" fill-rule="evenodd" clip-rule="evenodd"
viewBox="0 0 24 24"
 xmlns:xlink="http://www.w3.org/1999/xlink">
 <g id="Layer_x0020_1">
  <metadata id="CorelCorpID_0Corel-Layer"/>
  <polygon fill="none" points="0,0 24,0 24,24 0,24 "/>
  <path fill="#d4e3f6" d="M12.499 1c1.105,0 2.001,0.895 2.001,2 0,1.105 -0.896,2 -2.001,2 -1.104,0 -2,-0.895 -2,-2 0,-1.105 0.896,-2 2,-2zm-1 5c0.41,0 0.781,0.164 1.052,0.43l0.009 0.01 0.006 0.006 0.016 0.017c0.054,0.056 0.104,0.116 0.149,0.18 0.321,0.432 0.736,1.204 1.019,1.656 0.801,1.4 2.35,2.7 4.25,2.7l0 0.002c0.552,0 1,0.447 1,1 0,0.552 -0.448,1 -1,1l-0.055 -0.002c-2.178,-0.021 -4.115,-1.282 -5.403,-2.77l0 -0.002 -0.511 2.898 4.824 8.356c0.092,0.151 0.145,0.329 0.145,0.519 0,0.552 -0.448,1 -1,1 -0.373,0 -0.697,-0.203 -0.869,-0.504l-4.154 -6.333 -1.02 2.941c-0.015,0.049 -0.033,0.098 -0.055,0.145 -0.048,0.103 -0.111,0.193 -0.185,0.27l-2.896 3.052c-0.272,0.393 -0.795,0.544 -1.243,0.335 -0.501,-0.233 -0.717,-0.828 -0.484,-1.329 0.025,-0.054 0.054,-0.105 0.087,-0.151l0.001 0c0.058,-0.083 0.127,-0.155 0.204,-0.216l2.67 -2.813 0.794 -4.506 0 0 0.135 -0.765 0.172 -0.978 0.641 -3.633 -2.217 1.28 -0.591 3.35c-0.013,0.094 -0.041,0.187 -0.083,0.277 -0.233,0.5 -0.828,0.717 -1.329,0.483 -0.42,-0.195 -0.64,-0.644 -0.562,-1.08l0.001 -0.009 0.757 -4.287 3.741 -2.161c0.264,-0.229 0.608,-0.368 0.985,-0.368l0.024 0.001 0.009 0 0.934 0 0.008 0 0.024 -0.001z"/>
 </g>
</svg>
