<?xml version="1.0" encoding="UTF-8"?>
<!DOCTYPE svg PUBLIC "-//W3C//DTD SVG 1.1//EN" "http://www.w3.org/Graphics/SVG/1.1/DTD/svg11.dtd">
<!-- Creator: CorelDRAW 2017 -->
<svg xmlns="http://www.w3.org/2000/svg" xml:space="preserve" width="24px" height="24px" version="1.1" shape-rendering="geometricPrecision" text-rendering="geometricPrecision" image-rendering="optimizeQuality" fill-rule="evenodd" clip-rule="evenodd"
viewBox="0 0 24 24"
 xmlns:xlink="http://www.w3.org/1999/xlink">
 <g id="Layer_x0020_1">
  <metadata id="CorelCorpID_0Corel-Layer"/>
  <rect fill="none" width="24" height="24"/>
  <path fill="#d4e3f6" d="M18 3l-12 0c-1.1,0 -2,0.9 -2,2l0 2 -0.5 0c-0.275,0 -0.5,0.225 -0.5,0.5l0 3.5 1 0c0,3 0,6 0,9 0,0.55 0.45,1 1,1l1 0c0.55,0 1,-0.45 1,-1l0 -1 10.001 0 0 1c0,0.55 0.45,1 1,1l1 0c0.55,0 1,-0.45 1,-1 0,-2.999 -0.001,-5.999 -0.001,-9l1.001 0 0 -3.5c0,-0.275 -0.225,-0.5 -0.5,-0.5l-0.501 0 0 -2c0,-1.1 -0.9,-2 -2,-2zm-1 2l-10 0c-0.55,0 -1,0.45 -1,1l0 6 12 0 0 -6c0,-0.55 -0.45,-1 -1,-1zm-0.499 9c0.828,0 1.5,0.671 1.5,1.5 0,0.828 -0.672,1.5 -1.5,1.5 -0.829,0 -1.5,-0.672 -1.5,-1.5 0,-0.829 0.671,-1.5 1.5,-1.5zm-9.001 0c0.829,0 1.5,0.671 1.5,1.5 0,0.828 -0.671,1.5 -1.5,1.5 -0.828,0 -1.5,-0.672 -1.5,-1.5 0,-0.829 0.672,-1.5 1.5,-1.5z"/>
 </g>
</svg>
