<svg width="10" height="15" viewBox="0 0 10 15" fill="none" xmlns="http://www.w3.org/2000/svg">
<path d="M5 0.125C2.59033 0.125 0.625 2.09033 0.625 4.5C0.625 6.69727 2.26074 8.51123 4.375 8.81641V14.5H5.625V8.81641C7.73926 8.51123 9.375 6.69727 9.375 4.5C9.375 2.09033 7.40967 0.125 5 0.125ZM5 1.375C6.7334 1.375 8.125 2.7666 8.125 4.5C8.125 6.2334 6.7334 7.625 5 7.625C3.2666 7.625 1.875 6.2334 1.875 4.5C1.875 2.7666 3.2666 1.375 5 1.375ZM5 2C3.62549 2 2.5 3.12549 2.5 4.5H3.75C3.75 3.80176 4.30176 3.25 5 3.25V2Z" fill="white"/>
</svg>
