<svg width="219" height="229" viewBox="0 0 219 229" fill="none" xmlns="http://www.w3.org/2000/svg">
<circle cx="109.5" cy="119.5" r="109.5" fill="white"/>
<circle cx="109.444" cy="118.556" r="101.444" fill="#F8F8F8"/>
<g clip-path="url(#clip0_195:2125)">
<path d="M109.445 17.1478C53.4177 17.1478 8 62.5655 8 118.593C8 143.006 16.629 165.406 30.998 182.91C33.2148 165.16 50.9436 150.147 75.8035 143.038C84.8857 151.5 96.6172 156.634 109.444 156.634C121.969 156.634 133.471 151.758 142.461 143.651C167.536 151.382 184.883 167.272 185.454 185.741C201.269 167.85 210.889 144.351 210.889 118.593C210.889 62.5655 165.471 17.1478 109.445 17.1478ZM109.445 144.621C102.969 144.621 96.8667 142.842 91.4483 139.76C78.3909 132.33 69.4005 117.125 69.4005 99.5711C69.4005 74.7307 87.3637 54.5207 109.445 54.5207C131.528 54.5207 149.489 74.7307 149.489 99.5711C149.489 117.395 140.217 132.787 126.835 140.088C121.563 142.963 115.68 144.621 109.445 144.621Z" fill="#E9E9E9"/>
</g>
<defs>
<clipPath id="clip0_195:2125">
<rect width="202.889" height="202.889" fill="white" transform="translate(8)"/>
</clipPath>
</defs>
</svg>
