<svg width="20" height="20" viewBox="0 0 20 20" fill="none" xmlns="http://www.w3.org/2000/svg">
<path d="M10 2.5C5.86426 2.5 2.5 5.86426 2.5 10C2.5 14.1357 5.86426 17.5 10 17.5C12.5317 17.5 14.7754 16.2427 16.1328 14.3164L15.1172 13.5938C13.9868 15.2002 12.1191 16.25 10 16.25C6.54053 16.25 3.75 13.4595 3.75 10C3.75 6.54053 6.54053 3.75 10 3.75C12.1191 3.75 13.9844 4.7998 15.1172 6.40625L16.1328 5.68359C14.7754 3.75732 12.5317 2.5 10 2.5ZM14.5898 7.05078L13.6914 7.94922L15.1172 9.375H7.5V10.625H15.1172L13.6914 12.0508L14.5898 12.9492L17.0898 10.4492L17.5195 10L17.0898 9.55078L14.5898 7.05078Z" fill="white"/>
</svg>
