<svg width="20" height="20" viewBox="0 0 20 20" fill="none" xmlns="http://www.w3.org/2000/svg">
<path d="M3.28125 1.71875L2.92969 2.05078L2.05078 2.92969L1.71875 3.28125L1.97266 3.69141L3.28125 5.87891L3.45703 6.19141H5.29297L7.79297 8.67188C5.55908 10.9155 2.71728 13.7671 2.61719 13.8672C1.63818 14.8462 1.63574 16.4502 2.63672 17.3828C3.61328 18.3472 5.20508 18.3716 6.13281 17.3828C6.14014 17.3755 6.14502 17.3706 6.15234 17.3633L10 13.4961L13.8672 17.3828L13.9258 17.4219C14.9072 18.3472 16.4673 18.3594 17.3828 17.3828V17.3633H17.4023C18.3594 16.3843 18.3691 14.7925 17.3828 13.8672L17.3633 13.8477L14.1016 10.6055C16.2964 10.4004 18.0151 8.54736 18.0469 6.30859H18.0664C18.0688 6.29639 18.0664 6.28174 18.0664 6.26953C18.0664 6.26221 18.0664 6.25732 18.0664 6.25C18.1274 5.52734 17.9712 4.83643 17.5977 4.23828L17.168 3.57422L14.2578 6.48438L13.3789 5.56641L16.3477 2.59766L15.4883 2.24609C14.9854 2.03125 14.4043 1.875 13.75 1.875C11.3477 1.875 9.375 3.84766 9.375 6.25C9.375 6.51123 9.43115 6.73828 9.47266 6.97266C9.19922 7.24609 8.99414 7.4707 8.67187 7.79297L6.19141 5.3125V3.45703L5.87891 3.28125L3.69141 1.97266L3.28125 1.71875ZM13.75 3.125C13.8379 3.125 13.8989 3.17627 13.9844 3.18359L11.6211 5.54688L12.0508 5.99609L13.8086 7.8125L14.2383 8.26172L16.7187 5.78125C16.731 5.92529 16.8335 6.03027 16.8164 6.19141V6.25C16.8164 7.97119 15.4126 9.375 13.6914 9.375C13.4619 9.375 13.1836 9.32129 12.8711 9.25781L12.5391 9.19922L12.3047 9.43359L5.25391 16.5039H5.23437V16.5234C4.79004 17.0093 4.01367 17.0215 3.49609 16.5039V16.4844H3.47656C2.99072 16.04 2.97852 15.2637 3.49609 14.7461C3.73291 14.5093 8.32031 9.88281 10.5664 7.63672L10.8203 7.38281L10.7227 7.03125C10.6714 6.82861 10.625 6.47949 10.625 6.25C10.625 4.52881 12.0288 3.125 13.75 3.125ZM3.47656 3.28125L4.94141 4.17969V4.80469L4.80469 4.94141H4.17969L3.28125 3.47656L3.47656 3.28125ZM12.6172 10.8789L16.5039 14.7461V14.7656H16.5234C17.0093 15.21 17.0215 15.9863 16.5039 16.5039H16.4844V16.5234C16.04 17.0093 15.2637 17.0215 14.7461 16.5039L10.8789 12.6172L12.6172 10.8789Z"/>
</svg>
