<svg width="14" height="16" viewBox="0 0 14 16" fill="none" xmlns="http://www.w3.org/2000/svg">
<path d="M10.125 0.5C9.25586 0.5 8.40137 0.836914 7.74219 1.49609L1.88281 7.35547C0.0249023 9.21338 0.0249023 12.2358 1.88281 14.0938C3.74072 15.9517 6.76318 15.9517 8.62109 14.0938L12.5273 10.1875L11.6484 9.30859L7.74219 13.2148C6.36279 14.5942 4.14111 14.5942 2.76172 13.2148C1.38232 11.8354 1.38232 9.61377 2.76172 8.23438L8.62109 2.375C9.46094 1.53516 10.8086 1.53516 11.6484 2.375C12.4883 3.21484 12.4883 4.5625 11.6484 5.40234L5.78906 11.2617C5.48877 11.562 5.01514 11.562 4.71484 11.2617C4.41455 10.9614 4.41455 10.4878 4.71484 10.1875L10.0859 4.81641L9.20703 3.9375L3.83594 9.30859C3.05713 10.0874 3.05713 11.3618 3.83594 12.1406C4.61475 12.9194 5.88916 12.9194 6.66797 12.1406L12.5273 6.28125C13.8457 4.96289 13.8457 2.81445 12.5273 1.49609C11.8682 0.836914 10.9941 0.5 10.125 0.5Z" fill="#939393"/>
</svg>
