<svg width="20" height="20" viewBox="0 0 20 20" fill="none" xmlns="http://www.w3.org/2000/svg">
<path d="M5 3.125C2.9375 3.125 1.25 4.8125 1.25 6.875C1.25 8.125 1.875 9.25049 2.8125 9.87549C1.125 10.7505 0 12.4375 0 14.375H1.25C1.25 12.3125 2.9375 10.625 5 10.625C7.0625 10.625 8.75 12.3125 8.75 14.375H10C10 12.375 11.6255 10.6875 13.6255 10.625H13.75C15.3125 10.625 16.625 9.68774 17.1875 8.37524C17.1875 8.37524 17.1873 8.31299 17.2498 8.31299C17.3123 8.25049 17.312 8.12524 17.312 8.06274C17.312 8.00024 17.313 7.99951 17.3755 7.93701C17.3755 7.87451 17.4377 7.75049 17.4377 7.68799C17.4377 7.62549 17.4375 7.5625 17.5 7.5C17.5 7.4375 17.4998 7.37451 17.5623 7.31201V6.99951V6.93726C17.5623 4.87476 15.8748 3.18726 13.8123 3.18726C11.7498 3.18726 10.0623 4.87476 10.0623 6.93726C10.0623 8.18726 10.6873 9.31274 11.6248 9.93774C10.6873 10.3752 9.93726 11.1245 9.43726 11.9995C8.93726 11.1245 8.18726 10.3752 7.24976 9.93774C8.12476 9.25024 8.75 8.125 8.75 6.875C8.75 4.8125 7.0625 3.125 5 3.125ZM5 4.375C6.375 4.375 7.5 5.5 7.5 6.875C7.5 8.25 6.375 9.375 5 9.375C3.625 9.375 2.5 8.25 2.5 6.875C2.5 5.5 3.625 4.375 5 4.375ZM13.75 4.375C15.125 4.375 16.25 5.5 16.25 6.875C16.25 8.25 15.125 9.375 13.75 9.375C12.375 9.375 11.25 8.25 11.25 6.875C11.25 5.5 12.375 4.375 13.75 4.375ZM15.0623 11.25V12.5623C14.6873 12.6248 14.3127 12.813 14.0002 13.0005L13.0627 12.063L12.1875 12.937L13.125 13.8745C12.875 14.187 12.7505 14.5625 12.688 15H11.25V16.25H12.5623C12.6248 16.625 12.813 17.0005 13.0005 17.3755L12.063 18.313L12.937 19.187L13.8745 18.2495C14.187 18.437 14.5627 18.6252 14.9377 18.6877V20H16.1877V18.6877C16.5627 18.6252 16.9373 18.437 17.2498 18.2495L18.1873 19.187L19.0625 18.313L18.125 17.3755C18.375 17.063 18.4995 16.6875 18.562 16.25H20V15H18.6877C18.6252 14.625 18.437 14.2495 18.2495 13.8745L19.187 12.937L18.313 12.063L17.3755 13.0005C17.063 12.813 16.6873 12.6248 16.3123 12.5623V11.25H15.0623ZM15.625 13.75C16.6875 13.75 17.5 14.5625 17.5 15.625C17.5 16.6875 16.6875 17.5 15.625 17.5C14.5625 17.5 13.75 16.6875 13.75 15.625C13.75 14.5625 14.5625 13.75 15.625 13.75ZM15.625 15C15.5469 15 15.4688 15.0195 15.3955 15.0537C15.3223 15.0879 15.2539 15.1367 15.1953 15.1953C15.1367 15.2539 15.0879 15.3223 15.0537 15.3955C15.0195 15.4688 15 15.5469 15 15.625C15 15.7031 15.0195 15.7812 15.0537 15.8545C15.0879 15.9277 15.1367 15.9961 15.1953 16.0547C15.2539 16.1133 15.3223 16.1621 15.3955 16.1963C15.4688 16.2305 15.5469 16.25 15.625 16.25C15.9375 16.25 16.25 15.9375 16.25 15.625C16.25 15.3125 15.9375 15 15.625 15Z" />
</svg>
