<?xml version="1.0" encoding="UTF-8"?>
<!DOCTYPE svg PUBLIC "-//W3C//DTD SVG 1.1//EN" "http://www.w3.org/Graphics/SVG/1.1/DTD/svg11.dtd">
<!-- Creator: CorelDRAW 2021 (64-Bit) -->
<svg xmlns="http://www.w3.org/2000/svg" xml:space="preserve" width="18px" height="18px" version="1.1" style="shape-rendering:geometricPrecision; text-rendering:geometricPrecision; image-rendering:optimizeQuality; fill-rule:evenodd; clip-rule:evenodd"
viewBox="0 0 24 24"
 xmlns:xlink="http://www.w3.org/1999/xlink"
 xmlns:xodm="http://www.corel.com/coreldraw/odm/2003">
 <defs>
  <style type="text/css">
   <![CDATA[
    .fil0 {fill:black}
   ]]>
  </style>
 </defs>
 <g id="Layer_x0020_1">
  <metadata id="CorelCorpID_0Corel-Layer"/>
  <path class="fil0" d="M1.613 7.37l3.94 0c0.615,0 1.112,-0.497 1.112,-1.112l0 -3.94c0,-0.616 -0.497,-1.113 -1.112,-1.113l-3.94 0c-0.616,0 -1.113,0.497 -1.113,1.113l0 3.94c0,0.615 0.497,1.112 1.113,1.112zm20.774 -4.197l-12.739 0c-0.614,0 -1.113,0.498 -1.113,1.113 0,0.614 0.499,1.113 1.113,1.113l12.739 0c0.615,0 1.113,-0.499 1.113,-1.113 0,-0.615 -0.498,-1.113 -1.113,-1.113zm-21.887 10.8c0,0.609 0.497,1.113 1.113,1.113l3.94 0c0.615,0 1.112,-0.504 1.112,-1.113l0 -3.946c0,-0.609 -0.497,-1.113 -1.112,-1.113l-3.94 0c-0.616,0 -1.113,0.504 -1.113,1.113l0 3.946zm21.887 -3.086l-12.739 0c-0.614,0 -1.113,0.499 -1.113,1.113 0,0.614 0.499,1.113 1.113,1.113l12.739 0c0.615,0 1.113,-0.499 1.113,-1.113 0,-0.614 -0.498,-1.113 -1.113,-1.113zm-21.887 10.795c0,0.616 0.497,1.113 1.113,1.113l3.94 0c0.615,0 1.112,-0.497 1.112,-1.113l0 -3.94c0,-0.615 -0.497,-1.112 -1.112,-1.112l-3.94 0c-0.616,0 -1.113,0.497 -1.113,1.112l0 3.94zm21.887 -3.081l-12.739 0c-0.614,0 -1.113,0.499 -1.113,1.113 0,0.615 0.499,1.113 1.113,1.113l12.739 0c0.615,0 1.113,-0.498 1.113,-1.113 0,-0.614 -0.498,-1.113 -1.113,-1.113z"/>
 </g>
</svg>
