<svg width="17" height="19" viewBox="0 0 17 19" fill="none" xmlns="http://www.w3.org/2000/svg">
<path d="M8.50488 9.27734C11.1285 9.27734 13.2549 7.15098 13.2549 4.52734C13.2549 1.90371 11.1285 -0.222656 8.50488 -0.222656C5.88125 -0.222656 3.75488 1.90371 3.75488 4.52734C3.75488 7.15098 5.88125 9.27734 8.50488 9.27734ZM12.06 10.4871L10.2861 17.5898L9.09863 12.543L10.2861 10.4648H6.72363L7.91113 12.543L6.72363 17.5898L4.9498 10.4871C2.30391 10.6133 0.192383 12.7768 0.192383 15.4523V16.9961C0.192383 17.9795 0.990234 18.7773 1.97363 18.7773H15.0361C16.0195 18.7773 16.8174 17.9795 16.8174 16.9961V15.4523C16.8174 12.7768 14.7059 10.6133 12.06 10.4871Z" fill="#243B51"/>
</svg>
