<?xml version="1.0" encoding="UTF-8"?><svg xmlns="http://www.w3.org/2000/svg" xmlns:xlink="http://www.w3.org/1999/xlink" width="64px" height="64px" viewBox="0 0 64 64" version="1.1"><title>stack</title><defs><path id="path-1" d="M.06 64V.04H64V64z"/></defs><g id="Page-1" stroke="none" stroke-width="1" fill="none" fill-rule="evenodd"><g id="stack"><g id="Group-3"><mask id="mask-2" fill="#fff"><use xlink:href="#path-1"/></mask><path d="M64 32c0 17.673-14.327 32-32 32C14.327 64 0 49.673 0 32 0 14.327 14.327 0 32 0c17.673 0 32 14.327 32 32" id="Fill-1" fill="#ffffff" mask="url(#mask-2)"/></g><path d="M32 54c-.634 0-1.268-.145-1.752-.435L12.726 43.051c-.94-.564-.967-1.468-.082-2.051.026.017.054.035.082.051l17.522 10.513c.484.291 1.118.436 1.752.436.634 0 1.268-.145 1.752-.436l17.522-10.513c.028-.016.055-.034.082-.051.885.583.858 1.487-.082 2.051L33.752 53.565c-.484.29-1.118.435-1.752.435" id="Fill-4" fill="#B3B2A4"/><path d="M33.752 51.564c-.967.581-2.537.581-3.504 0L12.726 41.051c-.968-.58-.968-1.522 0-2.102l17.522-10.514c.967-.58 2.537-.58 3.504 0l17.522 10.514c.968.58.968 1.522 0 2.102L33.752 51.564" id="Fill-5" fill="#fead54"/><path d="M48.026 37l-1.666-1 4.914-2.949.082-.051c.885.583.858 1.487-.082 2.051L48.026 37m-32.052 0l-3.248-1.949c-.94-.564-.967-1.468-.082-2.051l.082.051L17.64 36l-1.666 1" id="Fill-6" fill="#B3B2A4"/><path d="M32 46c-.634 0-1.268-.145-1.752-.436L15.974 37l1.666-1 12.608 7.564c.484.291 1.118.436 1.752.436.634 0 1.268-.145 1.752-.436L46.36 36l1.666 1-14.274 8.564c-.484.291-1.118.436-1.752.436" id="Fill-7" fill="#cea16f"/><path d="M33.752 43.564c-.967.581-2.537.581-3.504 0L12.726 33.051c-.968-.58-.968-1.522 0-2.102l17.522-10.513c.967-.581 2.537-.581 3.504 0l17.522 10.513c.968.58.968 1.522 0 2.102L33.752 43.564" id="Fill-8" fill="#73BBA3"/><path d="M48.026 29l-14.274-8.564C33.268 20.145 32.634 20 32 20c-.634 0-1.268.145-1.752.436L15.974 29l-3.248-1.949c-.968-.58-.968-1.522 0-2.102l17.522-10.513C30.732 14.145 31.366 14 32 14c.634 0 1.268.145 1.752.436l17.522 10.513c.968.58.968 1.522 0 2.102L48.026 29" id="Fill-9" fill="#B3B2A4"/><path d="M32 38c-.634 0-1.268-.145-1.752-.436L15.974 29l14.274-8.564C30.732 20.145 31.366 20 32 20c.634 0 1.268.145 1.752.436L48.026 29l-14.274 8.564c-.484.291-1.118.436-1.752.436" id="Fill-10" fill="#629986"/><path d="M33.752 35.564c-.967.581-2.537.581-3.504 0L12.726 25.051c-.968-.58-.968-1.522 0-2.102l17.522-10.513c.967-.581 2.537-.581 3.504 0l17.522 10.513c.968.58.968 1.522 0 2.102L33.752 35.564" id="Fill-11" fill="#028097"/></g></g><metadata><rdf:RDF xmlns:rdf="http://www.w3.org/1999/02/22-rdf-syntax-ns#" xmlns:rdfs="http://www.w3.org/2000/01/rdf-schema#" xmlns:dc="http://purl.org/dc/elements/1.1/"><rdf:Description about="https://iconscout.com/legal#licenses" dc:title="stack" dc:description="stack" dc:publisher="Iconscout" dc:date="2017-09-25" dc:format="image/svg+xml" dc:language="en"><dc:creator><rdf:Bag><rdf:li>Elegant Themes</rdf:li></rdf:Bag></dc:creator></rdf:Description></rdf:RDF></metadata></svg>