<svg width="18" height="18" viewBox="0 0 18 18" fill="none" xmlns="http://www.w3.org/2000/svg">
<path fill-rule="evenodd" clip-rule="evenodd" d="M10.692 0.00075C10.3853 0.0045 10.1385 0.25575 10.1385 0.56325C10.1385 0.56625 10.1385 0.56925 10.1385 0.57225V2.2515H8.4525C8.14275 2.2515 7.893 2.50275 7.893 2.81325V4.8405C8.36325 4.82775 9.015 5.27175 9.015 5.27175V3.3765H10.569C10.6117 3.387 10.6552 3.39225 10.6995 3.39225C10.7437 3.39225 10.7872 3.387 10.8307 3.3765H15.06C15.1027 3.387 15.147 3.39225 15.1912 3.39225C15.2355 3.39225 15.279 3.387 15.3218 3.3765H16.8773V9H12.7245C13.041 9.32325 13.0522 9.74175 13.1437 10.1273H17.4375C17.748 10.1273 18 9.8745 18 9.564V2.81325C18 2.50275 17.748 2.2515 17.4375 2.2515H15.7545V0.57225C15.7545 0.56925 15.7545 0.56625 15.7545 0.56325C15.7545 0.252 15.5025 0 15.192 0C15.189 0 15.186 0 15.183 0C14.8755 0.0045 14.6295 0.25575 14.6295 0.56325C14.6295 0.56625 14.6295 0.56925 14.6295 0.57225V2.2515H11.2635V0.57225C11.2635 0.56925 11.2635 0.56625 11.2635 0.56325C11.2635 0.252 11.0115 0 10.701 0C10.698 0 10.695 0 10.692 0V0.00075ZM10.1385 4.5015V5.62575H11.2613V4.5015H10.1385ZM12.384 4.5015V5.62575H13.509V4.5015H12.384ZM14.6318 4.5015V5.62575H15.7545V4.5015H14.6318ZM6.1785 5.619C2.772 5.619 0 8.39775 0 11.811C0 15.2235 2.772 18 6.1785 18C9.58575 18 12.3593 15.2235 12.3593 11.811C12.3593 8.39775 9.58575 5.619 6.1785 5.619ZM6.1785 6.744C8.979 6.744 11.2372 9.006 11.2372 11.811C11.2372 14.616 8.979 16.8757 6.1785 16.8757C3.37875 16.8757 1.12275 14.616 1.12275 11.811C1.12275 9.006 3.37875 6.744 6.1785 6.744ZM12.384 6.75075V7.875H13.509V6.75075H12.384ZM14.6318 6.75075V7.875H15.7545V6.75075H14.6318ZM6.17175 7.4925C5.86575 7.497 5.619 7.74825 5.619 8.05575C5.619 8.05875 5.619 8.06175 5.619 8.06475L5.61825 11.811C5.619 12.1215 5.87025 12.3743 6.1815 12.3743H9.56925C9.5715 12.3743 9.5745 12.3743 9.57675 12.3743C9.888 12.3743 10.1392 12.1215 10.1392 11.8102C10.1392 11.499 9.888 11.247 9.57675 11.247C9.5745 11.247 9.5715 11.247 9.56925 11.247L6.74325 11.2477V8.06475C6.744 8.06175 6.744 8.05875 6.744 8.05575C6.744 7.7445 6.492 7.4925 6.1815 7.4925C6.1785 7.4925 6.1755 7.4925 6.1725 7.4925H6.17175Z" fill="white"/>
</svg>
