<svg width="14" height="16" viewBox="0 0 14 16" fill="none" xmlns="http://www.w3.org/2000/svg">
<path d="M7 0.5C3.8042 0.5 1.13574 2.4751 0.046875 5.26562L1.19922 5.73438C2.10986 3.40039 4.31934 1.75 7 1.75C9.02637 1.75 10.833 2.74365 11.9609 4.25H9.5V5.5H13.875V1.125H12.625V3.05859C11.2554 1.48877 9.23145 0.5 7 0.5ZM12.8008 10.2656C11.8901 12.5996 9.68066 14.25 7 14.25C4.95166 14.25 3.15234 13.2417 2.01953 11.75H4.5V10.5H0.125V14.875H1.375V12.9414C2.74219 14.4917 4.74658 15.5 7 15.5C10.1958 15.5 12.8643 13.5249 13.9531 10.7344L12.8008 10.2656Z" fill="#939393"/>
</svg>
