<svg width="28" height="28" viewBox="0 0 28 28" fill="none" xmlns="http://www.w3.org/2000/svg">
<circle cx="14" cy="14" r="14" fill="url(#paint0_linear)"/>
<path d="M14 7.75C12.3447 7.75 10.9067 8.52393 9.87891 9.66406C9.79346 9.6543 9.71777 9.625 9.625 9.625C8.25049 9.625 7.125 10.7505 7.125 12.125C6.04346 12.7842 5.25 13.8975 5.25 15.25C5.25 17.313 6.93701 19 9 19H12.125V17.75H9C7.61328 17.75 6.5 16.6367 6.5 15.25C6.5 14.2124 7.12988 13.3262 8.02344 12.9453L8.45312 12.7695L8.39453 12.3008C8.38232 12.1982 8.375 12.1396 8.375 12.125C8.375 11.4268 8.92676 10.875 9.625 10.875C9.71289 10.875 9.81055 10.8872 9.91797 10.9141L10.3086 11.0117L10.543 10.6992C11.3438 9.67139 12.5938 9 14 9C16.0483 9 17.7573 10.4087 18.2383 12.3008L18.3555 12.7891L18.8828 12.7695C19.0146 12.7622 19.0439 12.75 19 12.75C20.3867 12.75 21.5 13.8633 21.5 15.25C21.5 16.6367 20.3867 17.75 19 17.75H15.875V19H19C21.063 19 22.75 17.313 22.75 15.25C22.75 13.2773 21.1948 11.6978 19.2539 11.5586C18.4897 9.35889 16.4536 7.75 14 7.75ZM13.375 15.25V20.25H11.5L14 22.75L16.5 20.25H14.625V15.25H13.375Z" fill="white"/>
<defs>
<linearGradient id="paint0_linear" x1="28.2987" y1="28.1077" x2="20.64" y2="-4.80313" gradientUnits="userSpaceOnUse">
<stop stop-color="#136DD7"/>
<stop offset="1" stop-color="#75B4FF"/>
</linearGradient>
</defs>
</svg>
