<svg width="28" height="28" viewBox="0 0 28 28" fill="none" xmlns="http://www.w3.org/2000/svg">
<circle cx="14" cy="14" r="14" fill="url(#paint0_linear)"/>
<path d="M10.875 6.5C9.84717 6.5 9 7.34717 9 8.375C9 9.18311 9.52734 9.87158 10.25 10.1328V17.8672C9.52734 18.1284 9 18.8169 9 19.625C9 20.6528 9.84717 21.5 10.875 21.5C11.9028 21.5 12.75 20.6528 12.75 19.625C12.75 18.8315 12.2397 18.1602 11.5391 17.8867C11.6294 17.1177 11.9272 16.7393 12.3984 16.4219C12.96 16.0435 13.8218 15.8188 14.7617 15.6016C15.7017 15.3843 16.71 15.1597 17.5547 14.5664C18.2969 14.0464 18.8584 13.1943 18.9805 12.0078C19.7129 11.7515 20.25 11.063 20.25 10.25C20.25 9.22217 19.4028 8.375 18.375 8.375C17.3472 8.375 16.5 9.22217 16.5 10.25C16.5 11.0483 17.02 11.7197 17.7305 11.9883C17.645 12.8086 17.3276 13.2163 16.8516 13.5508C16.29 13.9438 15.4233 14.1758 14.4883 14.3906C13.5532 14.6055 12.54 14.7959 11.6953 15.3672C11.627 15.4136 11.5635 15.4722 11.5 15.5234V10.1328C12.2227 9.87158 12.75 9.18311 12.75 8.375C12.75 7.34717 11.9028 6.5 10.875 6.5ZM10.875 7.75C11.2266 7.75 11.5 8.02344 11.5 8.375C11.5 8.72656 11.2266 9 10.875 9C10.5234 9 10.25 8.72656 10.25 8.375C10.25 8.02344 10.5234 7.75 10.875 7.75ZM18.375 9.625C18.7266 9.625 19 9.89844 19 10.25C19 10.6016 18.7266 10.875 18.375 10.875C18.0234 10.875 17.75 10.6016 17.75 10.25C17.75 9.89844 18.0234 9.625 18.375 9.625ZM10.875 19C11.2266 19 11.5 19.2734 11.5 19.625C11.5 19.9766 11.2266 20.25 10.875 20.25C10.5234 20.25 10.25 19.9766 10.25 19.625C10.25 19.2734 10.5234 19 10.875 19Z" fill="white"/>
<defs>
<linearGradient id="paint0_linear" x1="28.2987" y1="28.1077" x2="20.64" y2="-4.80313" gradientUnits="userSpaceOnUse">
<stop stop-color="#136DD7"/>
<stop offset="1" stop-color="#75B4FF"/>
</linearGradient>
</defs>
</svg>
