<svg width="38" height="24" viewBox="0 0 38 24" fill="none" xmlns="http://www.w3.org/2000/svg">
<path opacity="0.5" fill-rule="evenodd" clip-rule="evenodd" d="M34 11C34 14.9 30.9 18 27 18H7C3.1 18 0 14.9 0 11C0 7.1 3.1 4 7 4H27C30.9 4 34 7.1 34 11Z" fill="#5C8AEA"/>
<g filter="url(#filter0_dd_3716_2086)">
<path fill-rule="evenodd" clip-rule="evenodd" d="M26 21C31.5228 21 36 16.5228 36 11C36 5.47715 31.5228 1 26 1C20.4772 1 16 5.47715 16 11C16 16.5228 20.4772 21 26 21Z" fill="#5C8AEA"/>
<path d="M35.75 11C35.75 16.3848 31.3848 20.75 26 20.75C20.6152 20.75 16.25 16.3848 16.25 11C16.25 5.61522 20.6152 1.25 26 1.25C31.3848 1.25 35.75 5.61522 35.75 11Z" stroke="url(#paint0_linear_3716_2086)" stroke-width="0.5"/>
<path d="M35.75 11C35.75 16.3848 31.3848 20.75 26 20.75C20.6152 20.75 16.25 16.3848 16.25 11C16.25 5.61522 20.6152 1.25 26 1.25C31.3848 1.25 35.75 5.61522 35.75 11Z" stroke="url(#paint1_linear_3716_2086)" stroke-width="0.5"/>
</g>
<defs>
<filter id="filter0_dd_3716_2086" x="14" y="0" width="24" height="24" filterUnits="userSpaceOnUse" color-interpolation-filters="sRGB">
<feFlood flood-opacity="0" result="BackgroundImageFix"/>
<feColorMatrix in="SourceAlpha" type="matrix" values="0 0 0 0 0 0 0 0 0 0 0 0 0 0 0 0 0 0 127 0" result="hardAlpha"/>
<feOffset dy="1"/>
<feGaussianBlur stdDeviation="1"/>
<feColorMatrix type="matrix" values="0 0 0 0 0 0 0 0 0 0 0 0 0 0 0 0 0 0 0.2 0"/>
<feBlend mode="normal" in2="BackgroundImageFix" result="effect1_dropShadow_3716_2086"/>
<feColorMatrix in="SourceAlpha" type="matrix" values="0 0 0 0 0 0 0 0 0 0 0 0 0 0 0 0 0 0 127 0" result="hardAlpha"/>
<feOffset dy="0.1"/>
<feGaussianBlur stdDeviation="0.15"/>
<feColorMatrix type="matrix" values="0 0 0 0 0 0 0 0 0 0 0 0 0 0 0 0 0 0 0.1 0"/>
<feBlend mode="normal" in2="effect1_dropShadow_3716_2086" result="effect2_dropShadow_3716_2086"/>
<feBlend mode="normal" in="SourceGraphic" in2="effect2_dropShadow_3716_2086" result="shape"/>
</filter>
<linearGradient id="paint0_linear_3716_2086" x1="16.0979" y1="1" x2="16.0979" y2="20.8043" gradientUnits="userSpaceOnUse">
<stop stop-opacity="0.01"/>
<stop offset="0.8" stop-opacity="0.02"/>
<stop offset="1" stop-opacity="0.04"/>
</linearGradient>
<linearGradient id="paint1_linear_3716_2086" x1="16" y1="1" x2="16" y2="21" gradientUnits="userSpaceOnUse">
<stop stop-color="white" stop-opacity="0.12"/>
<stop offset="0.2" stop-color="white" stop-opacity="0.06"/>
<stop offset="1" stop-color="white" stop-opacity="0.01"/>
</linearGradient>
</defs>
</svg>
