<svg width="28" height="28" viewBox="0 0 28 28" fill="none" xmlns="http://www.w3.org/2000/svg">
<circle cx="14" cy="14" r="14" fill="url(#paint0_linear)"/>
<path d="M13.7461 5.85552C13.4141 5.86529 13.0723 5.90191 12.7305 5.95318H12.7109C9.3833 6.49761 6.68798 9.11968 6.01172 12.4376C5.80908 13.3824 5.82129 14.2637 5.95312 15.1329C5.958 15.1353 5.95312 15.1475 5.95312 15.1524C6.1582 16.6197 8.0625 17.2618 9.13672 16.1876C9.90576 15.4185 11.0435 15.4185 11.8125 16.1876C12.5815 16.9566 12.5815 18.0943 11.8125 18.8633C10.7383 19.9376 11.3804 21.8419 12.8477 22.0469C12.8525 22.0469 12.8647 22.042 12.8672 22.0469C13.729 22.1788 14.6055 22.1861 15.543 21.9883C15.5503 21.9883 15.5552 21.9883 15.5625 21.9883C18.8901 21.3682 21.5049 18.6094 22.0469 15.2891V15.2696C22.7549 10.4942 19.2637 6.32427 14.7227 5.89459C14.3979 5.86285 14.0781 5.84576 13.7461 5.85552ZM13.7656 7.10552C14.0488 7.09576 14.3296 7.10064 14.6055 7.12506C18.4775 7.47906 21.4219 11.0093 20.8164 15.0938C20.3599 17.8917 18.1162 20.2452 15.3281 20.7579H15.3086C14.5103 20.9288 13.7729 20.9312 13.0234 20.8165C12.5107 20.753 12.2739 20.1793 12.6914 19.7618C13.9219 18.5313 13.9219 16.5391 12.6914 15.3087C11.4609 14.0782 9.46875 14.0782 8.23828 15.3087C7.8208 15.7261 7.24707 15.4893 7.18359 14.9766C7.06884 14.2271 7.07129 13.4898 7.24218 12.6915C7.81591 9.88629 10.1084 7.64019 12.9062 7.18365C13.1992 7.1397 13.4824 7.11529 13.7656 7.10552ZM12.75 8.37506C12.0591 8.37506 11.5 8.93414 11.5 9.62506C11.5 10.316 12.0591 10.8751 12.75 10.8751C13.4409 10.8751 14 10.316 14 9.62506C14 8.93414 13.4409 8.37506 12.75 8.37506ZM17.125 9.62506C16.4341 9.62506 15.875 10.1841 15.875 10.8751C15.875 11.566 16.4341 12.1251 17.125 12.1251C17.8159 12.1251 18.375 11.566 18.375 10.8751C18.375 10.1841 17.8159 9.62506 17.125 9.62506ZM9.625 10.8751C8.93408 10.8751 8.375 11.4341 8.375 12.1251C8.375 12.816 8.93408 13.3751 9.625 13.3751C10.3159 13.3751 10.875 12.816 10.875 12.1251C10.875 11.4341 10.3159 10.8751 9.625 10.8751ZM18.375 14.0001C17.6841 14.0001 17.125 14.5591 17.125 15.2501C17.125 15.941 17.6841 16.5001 18.375 16.5001C19.0659 16.5001 19.625 15.941 19.625 15.2501C19.625 14.5591 19.0659 14.0001 18.375 14.0001ZM15.875 17.1251C15.1841 17.1251 14.625 17.6841 14.625 18.3751C14.625 19.066 15.1841 19.6251 15.875 19.6251C16.5659 19.6251 17.125 19.066 17.125 18.3751C17.125 17.6841 16.5659 17.1251 15.875 17.1251Z" fill="white"/>
<defs>
<linearGradient id="paint0_linear" x1="28.2987" y1="28.1077" x2="20.64" y2="-4.80313" gradientUnits="userSpaceOnUse">
<stop stop-color="#136DD7"/>
<stop offset="1" stop-color="#75B4FF"/>
</linearGradient>
</defs>
</svg>
