<svg width="28" height="28" viewBox="0 0 28 28" fill="none" xmlns="http://www.w3.org/2000/svg">
<circle cx="14" cy="14" r="14" fill="url(#paint0_linear)"/>
<path d="M14 5.77734L13.6484 6.01172L6.14844 11.0312L5.875 11.207V16.793L6.14844 16.9688L13.6484 21.9883L14 22.2227L14.3516 21.9883L21.8516 16.9688L22.125 16.793V11.207L21.8516 11.0312L14.3516 6.01172L14 5.77734ZM13.375 7.69141V11.0898L10.1523 13.2578L7.63281 11.5586L13.375 7.69141ZM14.625 7.69141L20.3672 11.5586L17.8477 13.2578L14.625 11.0898V7.69141ZM14 12.1836L16.7148 14L14 15.8164L11.2852 14L14 12.1836ZM7.125 12.7109L9.03906 14L7.125 15.2891V12.7109ZM20.875 12.7109V15.2891L18.9609 14L20.875 12.7109ZM10.1719 14.7422L13.375 16.9102V20.3086L7.63281 16.4414L10.1719 14.7422ZM17.8281 14.7422L20.3672 16.4414L14.625 20.3086V16.9102L17.8281 14.7422Z" fill="white"/>
<defs>
<linearGradient id="paint0_linear" x1="28.2987" y1="28.1077" x2="20.64" y2="-4.80313" gradientUnits="userSpaceOnUse">
<stop stop-color="#136DD7"/>
<stop offset="1" stop-color="#75B4FF"/>
</linearGradient>
</defs>
</svg>
