<svg width="16" height="16" viewBox="0 0 16 16" fill="none" xmlns="http://www.w3.org/2000/svg">
<path d="M2.49219 0.617188C-0.193358 3.23193 -0.183592 7.57031 2.49219 10.2461L3.3711 9.36719C1.17139 7.16748 1.18115 3.64941 3.3711 1.51562L2.49219 0.617188ZM13.5078 0.675781L12.6289 1.57422C14.8311 3.77637 14.8311 7.22363 12.6289 9.42578L13.5078 10.3242C16.1787 7.65332 16.1787 3.34668 13.5078 0.675781ZM4.19141 2.49219C2.5752 4.1084 2.5752 6.75488 4.19141 8.37109L5.07031 7.49219C3.9375 6.35938 3.9375 4.50391 5.07031 3.37109L4.19141 2.49219ZM11.8086 2.55078L10.9297 3.44922C12.0625 4.58203 12.0625 6.41797 10.9297 7.55078L11.8086 8.44922C13.4248 6.83301 13.4248 4.16699 11.8086 2.55078ZM8 4.25C7.30908 4.25 6.75 4.80908 6.75 5.5C6.75 5.89062 6.93799 6.22754 7.21875 6.45703L4.44531 14.25H3.625V15.5H6.125V14.25H5.75391L8 7.98047L10.2461 14.25H9.875V15.5H12.375V14.25H11.5547L8.78125 6.45703C9.06201 6.22754 9.25 5.89062 9.25 5.5C9.25 4.80908 8.69092 4.25 8 4.25Z" fill="#ff0f0f"/>
</svg>
