<svg width="20" height="18" viewBox="0 0 20 18" fill="none" xmlns="http://www.w3.org/2000/svg">
<path d="M2.32422 0.425781L1.42578 1.32422L5.3125 5.19141L12.2461 12.125L13.4375 13.3359L17.6758 17.5742L18.5742 16.6758L14.6875 12.7891C17.334 11.478 19.1089 9.53223 19.2188 9.41016L19.5898 9L19.2188 8.58984C19.0503 8.40186 15.0537 4 10 4C8.77686 4 7.62207 4.26855 6.5625 4.66406L2.32422 0.425781ZM10 5.25C11.3452 5.25 12.6172 5.62842 13.75 6.14844C14.1528 6.82227 14.375 7.58398 14.375 8.375C14.375 9.51025 13.9355 10.5479 13.2227 11.3242L11.4453 9.54688C11.7065 9.22705 11.875 8.82178 11.875 8.375C11.875 7.33984 11.0352 6.5 10 6.5C9.55322 6.5 9.14795 6.66846 8.82812 6.92969L7.55859 5.66016C8.33496 5.4209 9.14795 5.25 10 5.25ZM4.17969 5.81641C2.17529 7.04932 0.874024 8.48486 0.78125 8.58984L0.410156 9L0.78125 9.41016C0.942383 9.59082 4.64356 13.6411 9.41406 13.9609C9.60693 13.9805 9.80225 14 10 14C10.1978 14 10.3931 13.9805 10.5859 13.9609C11.1011 13.9268 11.604 13.8584 12.0898 13.7461L10.9766 12.6328C10.6592 12.7061 10.3369 12.75 10 12.75C7.58789 12.75 5.625 10.7871 5.625 8.375C5.625 8.04297 5.66895 7.71826 5.74219 7.39844L4.17969 5.81641ZM4.53125 7.08594C4.43115 7.5083 4.375 7.93799 4.375 8.375C4.375 9.46143 4.68018 10.4624 5.21484 11.3242C3.78418 10.5039 2.69043 9.54199 2.12891 9C2.59522 8.54834 3.43506 7.79883 4.53125 7.08594ZM15.4688 7.08594C16.5649 7.79883 17.4023 8.54834 17.8711 9C17.3096 9.54199 16.1987 10.5234 14.7656 11.3438C15.3027 10.4819 15.625 9.46143 15.625 8.375C15.625 7.93799 15.5688 7.50586 15.4688 7.08594Z" fill="#5C8AEA"/>
</svg>
