<svg width="20" height="20" viewBox="0 0 20 20" fill="none" xmlns="http://www.w3.org/2000/svg">
<path d="M1.875 4.375C1.19141 4.375 0.625 4.94141 0.625 5.625V14.375C0.625 15.0586 1.19141 15.625 1.875 15.625H18.125C18.8086 15.625 19.375 15.0586 19.375 14.375V5.625C19.375 4.94141 18.8086 4.375 18.125 4.375H1.875ZM1.875 5.625H18.125V14.375H1.875V5.625ZM3.125 6.875V8.125H4.375V6.875H3.125ZM5.625 6.875V8.125H6.875V6.875H5.625ZM8.125 6.875V8.125H9.375V6.875H8.125ZM10.625 6.875V8.125H11.875V6.875H10.625ZM13.125 6.875V8.125H14.375V6.875H13.125ZM15.625 6.875V8.125H16.875V6.875H15.625ZM3.125 9.375V10.625H5.625V9.375H3.125ZM6.875 9.375V10.625H8.125V9.375H6.875ZM9.375 9.375V10.625H10.625V9.375H9.375ZM11.875 9.375V10.625H13.125V9.375H11.875ZM14.375 9.375V10.625H16.875V9.375H14.375ZM3.125 11.875V13.125H5.625V11.875H3.125ZM6.875 11.875V13.125H13.125V11.875H6.875ZM14.375 11.875V13.125H16.875V11.875H14.375Z" fill="#5C8AEA"/>
</svg>
