<svg width="12" height="18" viewBox="0 0 12 18" fill="none" xmlns="http://www.w3.org/2000/svg">
<path d="M0.375 0.25V5.25H5.375V0.25H0.375ZM6.625 0.25V5.25H11.625V0.25H6.625ZM1.625 1.5H4.125V4H1.625V1.5ZM7.875 1.5H10.375V4H7.875V1.5ZM0.375 6.5V11.5H5.375V6.5H0.375ZM6.625 6.5V11.5H11.625V6.5H6.625ZM1.625 7.75H4.125V10.25H1.625V7.75ZM7.875 7.75H10.375V10.25H7.875V7.75ZM0.375 12.75V17.75H5.375V12.75H0.375ZM6.625 12.75V17.75H11.625V12.75H6.625ZM1.625 14H4.125V16.5H1.625V14ZM7.875 14H10.375V16.5H7.875V14Z" fill="white"/>
</svg>
