<svg width="20" height="20" viewBox="0 0 20 20" fill="none" xmlns="http://www.w3.org/2000/svg">
<path d="M7.5 3.75C6.80908 3.75 6.25 4.30908 6.25 5C6.25 5.69092 6.80908 6.25 7.5 6.25C8.19092 6.25 8.75 5.69092 8.75 5C8.75 4.30908 8.19092 3.75 7.5 3.75ZM12.5 3.75C11.8091 3.75 11.25 4.30908 11.25 5C11.25 5.69092 11.8091 6.25 12.5 6.25C13.1909 6.25 13.75 5.69092 13.75 5C13.75 4.30908 13.1909 3.75 12.5 3.75ZM7.5 8.75C6.80908 8.75 6.25 9.30908 6.25 10C6.25 10.6909 6.80908 11.25 7.5 11.25C8.19092 11.25 8.75 10.6909 8.75 10C8.75 9.30908 8.19092 8.75 7.5 8.75ZM12.5 8.75C11.8091 8.75 11.25 9.30908 11.25 10C11.25 10.6909 11.8091 11.25 12.5 11.25C13.1909 11.25 13.75 10.6909 13.75 10C13.75 9.30908 13.1909 8.75 12.5 8.75ZM7.5 13.75C6.80908 13.75 6.25 14.3091 6.25 15C6.25 15.6909 6.80908 16.25 7.5 16.25C8.19092 16.25 8.75 15.6909 8.75 15C8.75 14.3091 8.19092 13.75 7.5 13.75ZM12.5 13.75C11.8091 13.75 11.25 14.3091 11.25 15C11.25 15.6909 11.8091 16.25 12.5 16.25C13.1909 16.25 13.75 15.6909 13.75 15C13.75 14.3091 13.1909 13.75 12.5 13.75Z"/>
</svg>
