<svg width="41" height="16" viewBox="0 0 41 16" fill="none" xmlns="http://www.w3.org/2000/svg">
<path d="M41 0H9.04413L0 8L9.04413 16H41V0Z" fill="black"/>
<path d="M14.749 11H13.2646L13.2744 10.2334H14.749C15.2568 10.2334 15.68 10.1276 16.0186 9.91602C16.3571 9.70117 16.611 9.40169 16.7803 9.01758C16.9528 8.63021 17.0391 8.17773 17.0391 7.66016V7.22559C17.0391 6.81868 16.9902 6.45736 16.8926 6.1416C16.7949 5.82259 16.6517 5.55404 16.4629 5.33594C16.2741 5.11458 16.043 4.94694 15.7695 4.83301C15.4993 4.71908 15.1885 4.66211 14.8369 4.66211H13.2354V3.89062H14.8369C15.3024 3.89062 15.7272 3.96875 16.1113 4.125C16.4954 4.27799 16.8258 4.50098 17.1025 4.79395C17.3825 5.08366 17.5973 5.43522 17.7471 5.84863C17.8968 6.25879 17.9717 6.72103 17.9717 7.23535V7.66016C17.9717 8.17448 17.8968 8.63835 17.7471 9.05176C17.5973 9.46191 17.3809 9.81185 17.0977 10.1016C16.8177 10.3913 16.4792 10.6143 16.082 10.7705C15.6882 10.9235 15.2438 11 14.749 11ZM13.7676 3.89062V11H12.8252V3.89062H13.7676ZM20.1543 6.54688V11H19.251V5.7168H20.1299L20.1543 6.54688ZM21.8047 5.6875L21.7998 6.52734C21.7249 6.51107 21.6533 6.5013 21.585 6.49805C21.5199 6.49154 21.445 6.48828 21.3604 6.48828C21.152 6.48828 20.9681 6.52083 20.8086 6.58594C20.6491 6.65104 20.514 6.74219 20.4033 6.85938C20.2926 6.97656 20.2048 7.11654 20.1396 7.2793C20.0778 7.4388 20.0371 7.61458 20.0176 7.80664L19.7637 7.95312C19.7637 7.63411 19.7946 7.33464 19.8564 7.05469C19.9215 6.77474 20.0208 6.52734 20.1543 6.3125C20.2878 6.0944 20.457 5.92513 20.6621 5.80469C20.8704 5.68099 21.1178 5.61914 21.4043 5.61914C21.4694 5.61914 21.5443 5.62728 21.6289 5.64355C21.7135 5.65658 21.7721 5.67122 21.8047 5.6875ZM25.5596 10.0967V7.37695C25.5596 7.16862 25.5173 6.98796 25.4326 6.83496C25.3512 6.67871 25.2275 6.55827 25.0615 6.47363C24.8955 6.389 24.6904 6.34668 24.4463 6.34668C24.2184 6.34668 24.0182 6.38574 23.8457 6.46387C23.6764 6.54199 23.543 6.64453 23.4453 6.77148C23.3509 6.89844 23.3037 7.03516 23.3037 7.18164H22.4004C22.4004 6.99284 22.4492 6.80566 22.5469 6.62012C22.6445 6.43457 22.7845 6.26693 22.9668 6.11719C23.1523 5.96419 23.3737 5.84375 23.6309 5.75586C23.8913 5.66471 24.181 5.61914 24.5 5.61914C24.8841 5.61914 25.2227 5.68424 25.5156 5.81445C25.8118 5.94466 26.043 6.1416 26.209 6.40527C26.3783 6.66569 26.4629 6.99284 26.4629 7.38672V9.84766C26.4629 10.0234 26.4775 10.2106 26.5068 10.4092C26.5394 10.6077 26.5866 10.7786 26.6484 10.9219V11H25.7061C25.6605 10.8958 25.6247 10.7575 25.5986 10.585C25.5726 10.4092 25.5596 10.2464 25.5596 10.0967ZM25.7158 7.79688L25.7256 8.43164H24.8125C24.5553 8.43164 24.3258 8.4528 24.124 8.49512C23.9222 8.53418 23.7529 8.5944 23.6162 8.67578C23.4795 8.75716 23.3753 8.8597 23.3037 8.9834C23.2321 9.10384 23.1963 9.24544 23.1963 9.4082C23.1963 9.57422 23.2337 9.72559 23.3086 9.8623C23.3835 9.99902 23.4958 10.1081 23.6455 10.1895C23.7985 10.2676 23.9857 10.3066 24.207 10.3066C24.4837 10.3066 24.7279 10.248 24.9395 10.1309C25.151 10.0137 25.3187 9.87044 25.4424 9.70117C25.5693 9.5319 25.6377 9.36751 25.6475 9.20801L26.0332 9.64258C26.0104 9.7793 25.9486 9.93066 25.8477 10.0967C25.7467 10.2627 25.6117 10.4222 25.4424 10.5752C25.2764 10.7249 25.0778 10.8503 24.8467 10.9512C24.6188 11.0488 24.3617 11.0977 24.0752 11.0977C23.7171 11.0977 23.403 11.0277 23.1328 10.8877C22.8659 10.7477 22.6576 10.5605 22.5078 10.3262C22.3613 10.0885 22.2881 9.82324 22.2881 9.53027C22.2881 9.24707 22.3434 8.99805 22.4541 8.7832C22.5648 8.5651 22.7243 8.38444 22.9326 8.24121C23.141 8.09473 23.3916 7.98405 23.6846 7.90918C23.9775 7.83431 24.3047 7.79688 24.666 7.79688H25.7158ZM29.2314 11H28.3281V5.16016C28.3281 4.7793 28.3965 4.45866 28.5332 4.19824C28.6732 3.93457 28.8734 3.736 29.1338 3.60254C29.3942 3.46582 29.7035 3.39746 30.0615 3.39746C30.1657 3.39746 30.2699 3.40397 30.374 3.41699C30.4814 3.43001 30.5856 3.44954 30.6865 3.47559L30.6377 4.21289C30.5693 4.19661 30.4912 4.18522 30.4033 4.17871C30.3187 4.1722 30.234 4.16895 30.1494 4.16895C29.9574 4.16895 29.7913 4.20801 29.6514 4.28613C29.5146 4.361 29.4105 4.47168 29.3389 4.61816C29.2673 4.76465 29.2314 4.94531 29.2314 5.16016V11ZM30.3545 5.7168V6.41016H27.4932V5.7168H30.3545ZM33.5723 5.7168V6.41016H30.7158V5.7168H33.5723ZM31.6826 4.43262H32.5859V9.69141C32.5859 9.87044 32.6136 10.0055 32.6689 10.0967C32.7243 10.1878 32.7959 10.248 32.8838 10.2773C32.9717 10.3066 33.0661 10.3213 33.167 10.3213C33.2419 10.3213 33.32 10.3148 33.4014 10.3018C33.486 10.2855 33.5495 10.2725 33.5918 10.2627L33.5967 11C33.5251 11.0228 33.4307 11.0439 33.3135 11.0635C33.1995 11.0863 33.0612 11.0977 32.8984 11.0977C32.6771 11.0977 32.4736 11.0537 32.2881 10.9658C32.1025 10.8779 31.9544 10.7314 31.8438 10.5264C31.7363 10.318 31.6826 10.0381 31.6826 9.68652V4.43262Z" fill="white"/>
</svg>
