<svg width="15" height="13" viewBox="0 0 15 13" fill="none" xmlns="http://www.w3.org/2000/svg">
<path d="M7.96442 12.6064L8.59296 12.0591C8.74172 11.9295 8.74172 11.7195 8.59296 11.5899L3.66819 7.30148H14.5073C14.7177 7.30148 14.8882 7.15295 14.8882 6.96975V6.19571C14.8882 6.01251 14.7177 5.86398 14.5073 5.86398H3.66819L8.59296 1.57552C8.74172 1.44598 8.74172 1.23594 8.59296 1.10637L7.96442 0.55907C7.81566 0.429529 7.57445 0.429529 7.42566 0.55907L0.777587 6.34817C0.628825 6.47771 0.628825 6.68775 0.777587 6.81732L7.42566 12.6064C7.57442 12.736 7.81563 12.736 7.96442 12.6064Z" fill="white"/>
</svg>
