<svg width="22" height="22" viewBox="0 0 22 22" fill="none" xmlns="http://www.w3.org/2000/svg">
<path fill-rule="evenodd" clip-rule="evenodd" d="M9.83333 19.1667C9.83333 19.785 10.0795 20.3788 10.517 20.8163C10.9545 21.2538 11.5483 21.5 12.1667 21.5H19.1667C19.785 21.5 20.3788 21.2538 20.8163 20.8163C21.2538 20.3788 21.5 19.785 21.5 19.1667C21.5 17.8717 21.5 15.795 21.5 14.5C21.5 13.8817 21.2538 13.2878 20.8163 12.8503C20.3788 12.4128 19.785 12.1667 19.1667 12.1667H12.1667C11.5483 12.1667 10.9545 12.4128 10.517 12.8503C10.0795 13.2878 9.83333 13.8817 9.83333 14.5V19.1667ZM5.16667 12.1667H2.83333C2.215 12.1667 1.62117 12.4128 1.18367 12.8503C0.746167 13.2878 0.5 13.8817 0.5 14.5C0.5 15.795 0.5 17.8717 0.5 19.1667C0.5 19.785 0.746167 20.3788 1.18367 20.8163C1.62117 21.2538 2.215 21.5 2.83333 21.5H5.16667C5.785 21.5 6.37883 21.2538 6.81633 20.8163C7.25383 20.3788 7.5 19.785 7.5 19.1667C7.5 17.8717 7.5 15.795 7.5 14.5C7.5 13.8817 7.25383 13.2878 6.81633 12.8503C6.37883 12.4128 5.785 12.1667 5.16667 12.1667ZM21.5 2.83333C21.5 2.215 21.2538 1.62116 20.8163 1.18366C20.3788 0.746165 19.785 0.5 19.1667 0.5H2.83333C2.215 0.5 1.62117 0.746165 1.18367 1.18366C0.746167 1.62116 0.5 2.215 0.5 2.83333C0.5 4.12833 0.5 6.205 0.5 7.5C0.5 8.11833 0.746167 8.71217 1.18367 9.14967C1.62117 9.58717 2.215 9.83333 2.83333 9.83333H19.1667C20.4558 9.83333 21.5 8.78917 21.5 7.5V2.83333Z" />
</svg>
