<svg width="15" height="17" viewBox="0 0 15 17" fill="none" xmlns="http://www.w3.org/2000/svg">
<path d="M9.93674 0.519531H5.10851V2.03953H9.93674V0.519531ZM6.71792 10.3995H8.32733V5.83953H6.71792V10.3995ZM13.1797 5.36833L14.3224 4.28913C13.9764 3.90153 13.5982 3.53673 13.1878 3.21753L12.0451 4.29673C10.7978 3.35433 9.2286 2.79193 7.52263 2.79193C3.52324 2.79193 0.280273 5.85473 0.280273 9.63193C0.280273 13.4091 3.51519 16.4719 7.52263 16.4719C11.5301 16.4719 14.765 13.4091 14.765 9.63193C14.765 8.02833 14.1695 6.54633 13.1797 5.36833ZM7.52263 14.9595C4.40842 14.9595 1.88969 12.5807 1.88969 9.63953C1.88969 6.69833 4.40842 4.31953 7.52263 4.31953C10.6368 4.31953 13.1556 6.69833 13.1556 9.63953C13.1556 12.5807 10.6368 14.9595 7.52263 14.9595Z" fill="#f61f50"/>
</svg>
