<?xml version="1.0" encoding="UTF-8"?>
<!DOCTYPE svg PUBLIC "-//W3C//DTD SVG 1.1//EN" "http://www.w3.org/Graphics/SVG/1.1/DTD/svg11.dtd">
<!-- Creator: CorelDRAW 2021 (64-Bit) -->
<svg xmlns="http://www.w3.org/2000/svg" xml:space="preserve" width="24px" height="24px" version="1.1" style="shape-rendering:geometricPrecision; text-rendering:geometricPrecision; image-rendering:optimizeQuality; fill-rule:evenodd; clip-rule:evenodd"
viewBox="0 0 24 24"
 xmlns:xlink="http://www.w3.org/1999/xlink"
 xmlns:xodm="http://www.corel.com/coreldraw/odm/2003">
 <defs>
  <style type="text/css">
   <![CDATA[
    .fil0 {fill:black}
   ]]>
  </style>
 </defs>
 <g id="Layer_x0020_1">
  <metadata id="CorelCorpID_0Corel-Layer"/>
  <path class="fil0" d="M4 1l4 0c1.65,0 3,1.35 3,3l0 4c0,1.65 -1.35,3 -3,3l-4 0c-1.65,0 -3,-1.35 -3,-3l0 -4c0,-1.65 1.35,-3 3,-3zm17.192 1.807l0 0c0.351,0.351 0.35,0.924 0,1.274l-17.111 17.111c-0.35,0.35 -0.923,0.351 -1.274,0.001l0 0c-0.35,-0.351 -0.349,-0.923 0.001,-1.274l17.111 -17.111c0.35,-0.35 0.923,-0.351 1.273,-0.001zm-17.615 2.17l0 0c0.351,-0.351 0.923,-0.351 1.273,0l0.914 0.913 2.327 -2.327c0.245,-0.246 0.601,-0.32 0.912,-0.22 -0.215,-0.327 -0.585,-0.543 -1.003,-0.543l-4 0c-0.66,0 -1.2,0.54 -1.2,1.2l0 4c0,0.66 0.54,1.2 1.2,1.2l4 0c0.66,0 1.2,-0.54 1.2,-1.2l0 -3.002 -2.713 2.713c-0.024,0.033 -0.051,0.064 -0.081,0.094l0 0c-0.17,0.17 -0.391,0.257 -0.615,0.262l-0.012 0.001 -0.009 0c-0.235,0.003 -0.471,-0.084 -0.65,-0.263l0 0c-0.031,-0.031 -0.059,-0.064 -0.085,-0.098l-1.457 -1.458c-0.351,-0.35 -0.351,-0.922 -0.001,-1.272zm12.424 8.024l4 0c1.65,0 3,1.35 3,3l0 4c0,1.65 -1.35,3 -3,3l-4 0c-1.65,0 -3,-1.35 -3,-3l0 -4c0,-1.65 1.35,-3 3,-3zm0 1.8l4 0c0.66,0 1.2,0.54 1.2,1.2l0 4c0,0.66 -0.54,1.2 -1.2,1.2l-4 0c-0.66,0 -1.2,-0.54 -1.2,-1.2l0 -4c0,-0.66 0.54,-1.2 1.2,-1.2z"/>
 </g>
</svg>
