<?xml version="1.0" encoding="UTF-8"?>
<!DOCTYPE svg PUBLIC "-//W3C//DTD SVG 1.1//EN" "http://www.w3.org/Graphics/SVG/1.1/DTD/svg11.dtd">
<!-- Creator: CorelDRAW 2021 (64-Bit) -->
<svg xmlns="http://www.w3.org/2000/svg" xml:space="preserve" width="24px" height="24px" version="1.1" style="shape-rendering:geometricPrecision; text-rendering:geometricPrecision; image-rendering:optimizeQuality; fill-rule:evenodd; clip-rule:evenodd"
viewBox="0 0 24 24"
 xmlns:xlink="http://www.w3.org/1999/xlink"
 xmlns:xodm="http://www.corel.com/coreldraw/odm/2003">
 <defs>
  <style type="text/css">
   <![CDATA[
    .fil0 {fill:black}
   ]]>
  </style>
 </defs>
 <g id="Layer_x0020_1">
  <metadata id="CorelCorpID_0Corel-Layer"/>
  <path class="fil0" d="M10 7A3 3 0 0 1 13 10V13A3 3 0 0 1 7 13V10A3 3 0 0 1 10 7M10 9A1 1 0 0 0 9 10V13A1 1 0 0 0 11 13V10A1 1 0 0 0 10 9M17 7A3 3 0 0 1 20 10V13A3 3 0 0 1 14 13V10A3 3 0 0 1 17 7M17 9A1 1 0 0 0 16 10V13A1 1 0 0 0 18 13V10A1 1 0 0 0 17 9M5 14A1 1 0 0 0 4 15L5 18H6V15A1 1 0 0 0 5 14Z"/>
 </g>
</svg>
