<?xml version="1.0" encoding="UTF-8"?>
<!DOCTYPE svg PUBLIC "-//W3C//DTD SVG 1.1//EN" "http://www.w3.org/Graphics/SVG/1.1/DTD/svg11.dtd">
<!-- Creator: CorelDRAW 2021 (64-Bit) -->
<svg xmlns="http://www.w3.org/2000/svg" xml:space="preserve" width="24px" height="24px" version="1.1" style="shape-rendering:geometricPrecision; text-rendering:geometricPrecision; image-rendering:optimizeQuality; fill-rule:evenodd; clip-rule:evenodd"
viewBox="0 0 24 24"
 xmlns:xlink="http://www.w3.org/1999/xlink"
 xmlns:xodm="http://www.corel.com/coreldraw/odm/2003">
 <defs>
  <style type="text/css">
   <![CDATA[
    .fil0 {fill:black}
   ]]>
  </style>
 </defs>
 <g id="Layer_x0020_1">
  <metadata id="CorelCorpID_0Corel-Layer"/>
  <path class="fil0" d="M14.256 0.001c-0.409,0.005 -0.738,0.34 -0.738,0.75 0,0.004 0,0.008 0,0.012l0 2.239 -2.248 0c-0.413,0 -0.746,0.335 -0.746,0.749l0 2.703c0.627,-0.017 1.496,0.575 1.496,0.575l0 -2.527 2.072 0c0.057,0.014 0.115,0.021 0.174,0.021 0.059,0 0.117,-0.007 0.175,-0.021l5.639 0c0.057,0.014 0.116,0.021 0.175,0.021 0.059,0 0.117,-0.007 0.174,-0.021l2.074 0 0 7.498 -5.537 0c0.422,0.431 0.437,0.989 0.559,1.503l5.725 0c0.414,0 0.75,-0.337 0.75,-0.751l0 -9.001c0,-0.414 -0.336,-0.749 -0.75,-0.749l-2.244 0 0 -2.239c0,-0.004 0,-0.008 0,-0.012 0,-0.415 -0.336,-0.751 -0.75,-0.751 -0.004,0 -0.008,0 -0.012,0 -0.41,0.006 -0.738,0.341 -0.738,0.751 0,0.004 0,0.008 0,0.012l0 2.239 -4.488 0 0 -2.239c0,-0.004 0,-0.008 0,-0.012 0,-0.415 -0.336,-0.751 -0.75,-0.751 -0.004,0 -0.008,0 -0.012,0l0 0.001zm-0.738 6.001l0 1.499 1.497 0 0 -1.499 -1.497 0zm2.994 0l0 1.499 1.5 0 0 -1.499 -1.5 0zm2.997 0l0 1.499 1.497 0 0 -1.499 -1.497 0zm-11.271 1.49c-4.542,0 -8.238,3.705 -8.238,8.256 0,4.55 3.696,8.252 8.238,8.252 4.543,0 8.241,-3.702 8.241,-8.252 0,-4.551 -3.698,-8.256 -8.241,-8.256zm0 1.5c3.734,0 6.745,3.016 6.745,6.756 0,3.74 -3.011,6.753 -6.745,6.753 -3.733,0 -6.741,-3.013 -6.741,-6.753 0,-3.74 3.008,-6.756 6.741,-6.756zm8.274 0.009l0 1.499 1.5 0 0 -1.499 -1.5 0zm2.997 0l0 1.499 1.497 0 0 -1.499 -1.497 0zm-11.28 0.989c-0.408,0.006 -0.737,0.341 -0.737,0.751 0,0.004 0,0.008 0,0.012l-0.001 4.995c0.001,0.414 0.336,0.751 0.751,0.751l4.517 0c0.003,0 0.007,0 0.01,0 0.415,0 0.75,-0.337 0.75,-0.752 0,-0.415 -0.335,-0.751 -0.75,-0.751 -0.003,0 -0.007,0 -0.01,0l-3.768 0.001 0 -4.244c0.001,-0.004 0.001,-0.008 0.001,-0.012 0,-0.415 -0.336,-0.751 -0.75,-0.751 -0.004,0 -0.008,0 -0.012,0l-0.001 0z"/>
 </g>
</svg>
