<svg width="20" height="20" viewBox="0 0 15 15" fill="none" xmlns="http://www.w3.org/2000/svg">
<path d="M14.7249 6.71294L8.16445 0.270163C7.98105 0.0900544 7.74053 0 7.5 0C7.25947 0 7.01895 0.0900544 6.83555 0.270163L0.275098 6.71294C-0.0916992 7.07344 -0.0916992 7.6575 0.275098 8.01801L6.83555 14.4608C7.01895 14.6409 7.25947 14.7309 7.5 14.7309C7.74053 14.7309 7.98105 14.6409 8.16445 14.4608L14.7249 8.01801C15.0917 7.6575 15.0917 7.07344 14.7249 6.71294ZM7.5 13.16L1.59961 7.36547L7.5 1.57092L13.4004 7.36547L7.5 13.16ZM4.6875 7.1353V9.43701C4.6875 9.56418 4.79238 9.66718 4.92188 9.66718H5.85938C5.98887 9.66718 6.09375 9.56418 6.09375 9.43701V7.59564H8.4375V9.14153C8.4375 9.27963 8.55264 9.37228 8.67334 9.37228C8.72812 9.37228 8.78408 9.35329 8.83096 9.31071L11.298 7.07431C11.3985 6.9831 11.3985 6.82716 11.298 6.73596L8.83096 4.49956C8.78408 4.45726 8.72812 4.43799 8.67334 4.43799C8.55264 4.43799 8.4375 4.53063 8.4375 4.66873V6.21462H5.625C5.10732 6.21462 4.6875 6.62691 4.6875 7.1353Z" fill="#0066B2"/>
</svg>
