<svg width="16" height="18" viewBox="0 0 16 18" fill="none" xmlns="http://www.w3.org/2000/svg">
<path d="M9.625 0.875C8.24316 0.875 7.125 1.99316 7.125 3.375H3.375V6.5C1.99316 6.5 0.875 7.61816 0.875 9C0.875 10.3818 1.99316 11.5 3.375 11.5V14.625H7.125C7.125 16.0068 8.24316 17.125 9.625 17.125C11.0068 17.125 12.125 16.0068 12.125 14.625H15.875V10.25H14.625C13.8804 10.25 13.375 9.74463 13.375 9C13.375 8.25537 13.8804 7.75 14.625 7.75H15.875V3.375H12.125C12.125 1.99316 11.0068 0.875 9.625 0.875ZM9.625 2.125C10.3696 2.125 10.875 2.63037 10.875 3.375V4.625H14.625V6.5C13.2432 6.5 12.125 7.61816 12.125 9C12.125 10.3818 13.2432 11.5 14.625 11.5V13.375H10.875V14.625C10.875 15.3696 10.3696 15.875 9.625 15.875C8.88037 15.875 8.375 15.3696 8.375 14.625V13.375H4.625V10.25H3.375C2.63037 10.25 2.125 9.74463 2.125 9C2.125 8.25537 2.63037 7.75 3.375 7.75H4.625V4.625H8.375V3.375C8.375 2.63037 8.88037 2.125 9.625 2.125Z" fill="#1C1C1C"/>
</svg>
