<svg width="14" height="14" viewBox="0 0 14 14" fill="none" xmlns="http://www.w3.org/2000/svg">
<path d="M3.32808 0.5C3.06636 0.5 2.80855 0.59375 2.5937 0.765625L2.56245 0.78125L2.54683 0.796875L0.984329 2.40625L0.999954 2.42188C0.517532 2.86719 0.369094 3.5332 0.578079 4.10938C0.580032 4.11328 0.576126 4.12109 0.578079 4.125C1.00191 5.33789 2.08589 7.67969 4.20308 9.79688C6.32808 11.9219 8.70113 12.9629 9.87495 13.4219H9.89058C10.498 13.625 11.1562 13.4805 11.625 13.0781L13.2031 11.5C13.6171 11.0859 13.6171 10.3672 13.2031 9.95312L11.1718 7.92188L11.1562 7.89062C10.7421 7.47656 10.0078 7.47656 9.5937 7.89062L8.5937 8.89062C8.23238 8.7168 7.37105 8.27148 6.54683 7.48438C5.72847 6.70312 5.3105 5.80469 5.1562 5.45312L6.1562 4.45312C6.57613 4.0332 6.58394 3.33398 6.14058 2.92188L6.1562 2.90625L6.10933 2.85938L4.10933 0.796875L4.0937 0.78125L4.06245 0.765625C3.84761 0.59375 3.5898 0.5 3.32808 0.5ZM3.32808 1.5C3.36519 1.5 3.4023 1.51758 3.43745 1.54688L5.43745 3.59375L5.48433 3.64062C5.48042 3.63672 5.51363 3.68945 5.45308 3.75L4.20308 5L3.9687 5.21875L4.07808 5.53125C4.07808 5.53125 4.6523 7.06836 5.85933 8.21875L5.9687 8.3125C7.13081 9.37305 8.49995 9.95312 8.49995 9.95312L8.81245 10.0938L10.2968 8.60938C10.3828 8.52344 10.3671 8.52344 10.4531 8.60938L12.5 10.6562C12.5859 10.7422 12.5859 10.7109 12.5 10.7969L10.9687 12.3281C10.7382 12.5254 10.4941 12.5664 10.2031 12.4688C9.07027 12.0234 6.86909 11.0566 4.9062 9.09375C2.92769 7.11523 1.89449 4.87109 1.51558 3.78125C1.43941 3.57812 1.49409 3.27734 1.67183 3.125L1.70308 3.09375L3.2187 1.54688C3.25386 1.51758 3.29097 1.5 3.32808 1.5Z" fill="#4A6EBB"/>
</svg>
