<svg width="18" height="18" viewBox="0 0 18 18" fill="none" xmlns="http://www.w3.org/2000/svg">
<path d="M4.41016 0.875C4.08301 0.875 3.76075 0.992188 3.49219 1.20703L3.45313 1.22656L3.4336 1.24609L1.48047 3.25781L1.5 3.27734C0.896976 3.83398 0.711429 4.6665 0.97266 5.38672C0.975101 5.3916 0.970218 5.40137 0.97266 5.40625C1.50244 6.92236 2.85743 9.84961 5.50391 12.4961C8.16016 15.1523 11.1265 16.4536 12.5938 17.0273H12.6133C13.3726 17.2812 14.1953 17.1006 14.7813 16.5977L16.7539 14.625C17.2715 14.1074 17.2715 13.209 16.7539 12.6914L14.2148 10.1523L14.1953 10.1133C13.6777 9.5957 12.7598 9.5957 12.2422 10.1133L10.9922 11.3633C10.5405 11.146 9.46387 10.5894 8.4336 9.60547C7.41065 8.62891 6.88819 7.50586 6.69532 7.06641L7.94532 5.81641C8.47022 5.2915 8.47998 4.41748 7.92578 3.90234L7.94532 3.88281L7.88672 3.82422L5.38672 1.24609L5.36719 1.22656L5.32813 1.20703C5.05957 0.992188 4.73731 0.875 4.41016 0.875ZM4.41016 2.125C4.45655 2.125 4.50293 2.14697 4.54688 2.18359L7.04688 4.74219L7.10547 4.80078C7.10059 4.7959 7.14209 4.86182 7.06641 4.9375L5.50391 6.5L5.21094 6.77344L5.34766 7.16406C5.34766 7.16406 6.06543 9.08545 7.57422 10.5234L7.71094 10.6406C9.16358 11.9663 10.875 12.6914 10.875 12.6914L11.2656 12.8672L13.1211 11.0117C13.2285 10.9043 13.209 10.9043 13.3164 11.0117L15.875 13.5703C15.9824 13.6777 15.9824 13.6387 15.875 13.7461L13.9609 15.6602C13.6729 15.9067 13.3677 15.958 13.0039 15.8359C11.5879 15.2793 8.83643 14.0708 6.38282 11.6172C3.90967 9.14404 2.61817 6.33887 2.14453 4.97656C2.04932 4.72266 2.11768 4.34668 2.33985 4.15625L2.37891 4.11719L4.27344 2.18359C4.31739 2.14697 4.36377 2.125 4.41016 2.125Z" fill="white"/>
</svg>
