<svg width="17" height="17" viewBox="0 0 12 12" fill="none" xmlns="http://www.w3.org/2000/svg">
<path d="M9.41602 7.10742C9.58789 7.10742 9.75195 7.14062 9.9082 7.20703C10.0684 7.26953 10.209 7.36133 10.3301 7.48242L11.6191 8.77148C11.7402 8.89258 11.832 9.0332 11.8945 9.19336C11.9609 9.34961 11.9941 9.51367 11.9941 9.68555C11.9941 9.85742 11.9609 10.0234 11.8945 10.1836C11.832 10.3398 11.7402 10.4785 11.6191 10.5996L11.5371 10.6816C11.3262 10.8926 11.1328 11.0801 10.957 11.2441C10.7812 11.4082 10.5977 11.5469 10.4062 11.6602C10.2148 11.7695 10.002 11.8535 9.76758 11.9121C9.5332 11.9707 9.25391 12 8.92969 12C8.44141 12 7.93945 11.9238 7.42383 11.7715C6.9082 11.6191 6.39453 11.4082 5.88281 11.1387C5.375 10.8691 4.875 10.5488 4.38281 10.1777C3.89453 9.80664 3.43164 9.40234 2.99414 8.96484C2.56055 8.52344 2.16016 8.05859 1.79297 7.57031C1.42578 7.07812 1.10938 6.57812 0.84375 6.07031C0.578125 5.55859 0.371094 5.04883 0.222656 4.54102C0.0742188 4.0332 0 3.54102 0 3.06445C0 2.74023 0.0273438 2.46289 0.0820312 2.23242C0.140625 2.00195 0.224609 1.79102 0.333984 1.59961C0.447266 1.4082 0.583984 1.22656 0.744141 1.05469C0.908203 0.878906 1.0957 0.685547 1.30664 0.474609L1.40039 0.380859C1.52148 0.259766 1.66016 0.166016 1.81641 0.0996094C1.97266 0.0332031 2.13867 0 2.31445 0C2.48633 0 2.65039 0.0332031 2.80664 0.0996094C2.9668 0.166016 3.10742 0.259766 3.22852 0.380859L4.51758 1.66992C4.63867 1.79102 4.73047 1.93164 4.79297 2.0918C4.85938 2.24805 4.89258 2.41211 4.89258 2.58398C4.89258 2.75586 4.86328 2.91016 4.80469 3.04688C4.74609 3.17969 4.67383 3.30078 4.58789 3.41016C4.50195 3.51953 4.40625 3.61914 4.30078 3.70898C4.19922 3.79883 4.10547 3.88672 4.01953 3.97266C3.93359 4.05859 3.86133 4.14648 3.80273 4.23633C3.74414 4.32227 3.71484 4.41602 3.71484 4.51758C3.71484 4.66602 3.76758 4.79297 3.87305 4.89844L7.10156 8.12695C7.20703 8.23242 7.33398 8.28516 7.48242 8.28516C7.58398 8.28516 7.67773 8.25586 7.76367 8.19727C7.85352 8.13867 7.94141 8.06641 8.02734 7.98047C8.11328 7.89453 8.20117 7.80078 8.29102 7.69922C8.38086 7.59375 8.48047 7.49805 8.58984 7.41211C8.69922 7.32617 8.82031 7.25391 8.95312 7.19531C9.08984 7.13672 9.24414 7.10742 9.41602 7.10742ZM8.92969 11.25C9.21094 11.25 9.44531 11.2246 9.63281 11.1738C9.82422 11.1191 9.99609 11.043 10.1484 10.9453C10.3008 10.8438 10.4492 10.7188 10.5938 10.5703C10.7383 10.4219 10.9043 10.2539 11.0918 10.0664C11.1973 9.96094 11.25 9.83398 11.25 9.68555C11.25 9.61523 11.2207 9.5332 11.1621 9.43945C11.1074 9.3418 11.0352 9.24023 10.9453 9.13477C10.8555 9.0293 10.7539 8.92188 10.6406 8.8125C10.5312 8.69922 10.4219 8.59375 10.3125 8.49609C10.207 8.39453 10.1074 8.30273 10.0137 8.2207C9.92383 8.13477 9.85352 8.06641 9.80273 8.01562C9.69727 7.91016 9.56836 7.85742 9.41602 7.85742C9.31445 7.85742 9.2207 7.88672 9.13477 7.94531C9.04883 8.00391 8.96289 8.07617 8.87695 8.16211C8.79102 8.24805 8.70117 8.34375 8.60742 8.44922C8.51758 8.55078 8.41797 8.64453 8.30859 8.73047C8.19922 8.81641 8.07617 8.88867 7.93945 8.94727C7.80664 9.00586 7.6543 9.03516 7.48242 9.03516C7.31055 9.03516 7.14453 9.00391 6.98438 8.94141C6.82812 8.875 6.68945 8.78125 6.56836 8.66016L3.33984 5.43164C3.21875 5.31055 3.125 5.17188 3.05859 5.01562C2.99609 4.85547 2.96484 4.68945 2.96484 4.51758C2.96484 4.3457 2.99414 4.19336 3.05273 4.06055C3.11133 3.92383 3.18359 3.80078 3.26953 3.69141C3.35547 3.58203 3.44922 3.48242 3.55078 3.39258C3.65625 3.29883 3.75195 3.20898 3.83789 3.12305C3.92383 3.03711 3.99609 2.95117 4.05469 2.86523C4.11328 2.7793 4.14258 2.68555 4.14258 2.58398C4.14258 2.43164 4.08984 2.30273 3.98438 2.19727C3.93359 2.14648 3.86523 2.07617 3.7793 1.98633C3.69727 1.89258 3.60547 1.79297 3.50391 1.6875C3.40625 1.57812 3.30078 1.46875 3.1875 1.35938C3.07812 1.24609 2.9707 1.14453 2.86523 1.05469C2.75977 0.964844 2.6582 0.892578 2.56055 0.837891C2.4668 0.779297 2.38477 0.75 2.31445 0.75C2.16602 0.75 2.03906 0.802734 1.93359 0.908203C1.74609 1.0957 1.57812 1.26172 1.42969 1.40625C1.28516 1.55078 1.16016 1.69922 1.05469 1.85156C0.953125 2.00391 0.875 2.17578 0.820312 2.36719C0.769531 2.55469 0.744141 2.78711 0.744141 3.06445C0.744141 3.50195 0.814453 3.95313 0.955078 4.41797C1.09961 4.88281 1.29688 5.34766 1.54688 5.8125C1.80078 6.27734 2.09961 6.73633 2.44336 7.18945C2.78711 7.63867 3.16211 8.06445 3.56836 8.4668C3.97461 8.86914 4.40234 9.24023 4.85156 9.58008C5.30469 9.91992 5.76172 10.2148 6.22266 10.4648C6.6875 10.7109 7.14844 10.9043 7.60547 11.0449C8.06641 11.1816 8.50781 11.25 8.92969 11.25Z" fill="#0066B2"/>
</svg>
