<svg width="17" height="17" viewBox="0 0 17 17" fill="none" xmlns="http://www.w3.org/2000/svg">
<path d="M7 0.125C4.5625 0.125 2.625 2.0625 2.625 4.5C2.625 6.02344 3.38123 7.35095 4.54394 8.13281C2.31876 9.09208 0.75 11.3085 0.75 13.875H2C2 11.125 4.25 8.875 7 8.875C9.4375 8.875 11.375 6.9375 11.375 4.5C11.375 2.0625 9.4375 0.125 7 0.125ZM7 1.375C8.75 1.375 10.125 2.75 10.125 4.5C10.125 6.25 8.75 7.625 7 7.625C5.25 7.625 3.875 6.25 3.875 4.5C3.875 2.75 5.25 1.375 7 1.375ZM10.125 8.875C9.4375 8.875 8.875 9.4375 8.875 10.125V12.8752L12.625 16.6252C12.875 16.8752 13.1877 17 13.5002 17C13.8127 17 14.1255 16.8752 14.3755 16.6252L16.6252 14.3755C16.8752 14.1255 17 13.8127 17 13.5002C17 13.1877 16.8752 12.875 16.6252 12.625L12.8752 8.875H10.125ZM10.125 10.125H12.3748L15.75 13.5002L13.5002 15.75L10.125 12.3748V10.125ZM11.375 10.75C11.2092 10.75 11.0503 10.8158 10.9331 10.9331C10.8158 11.0503 10.75 11.2092 10.75 11.375C10.75 11.5408 10.8158 11.6997 10.9331 11.8169C11.0503 11.9342 11.2092 12 11.375 12C11.5408 12 11.6997 11.9342 11.8169 11.8169C11.9342 11.6997 12 11.5408 12 11.375C12 11.2092 11.9342 11.0503 11.8169 10.9331C11.6997 10.8158 11.5408 10.75 11.375 10.75Z" fill="#1C1C1C"/>
</svg>
