<svg width="14" height="14" viewBox="0 0 14 14" fill="none" xmlns="http://www.w3.org/2000/svg">
<path d="M7 0.125C4.59033 0.125 2.625 2.09033 2.625 4.5C2.625 6.00635 3.39404 7.34424 4.55859 8.13281C2.32959 9.08984 0.75 11.3018 0.75 13.875H2C2 11.1064 4.23145 8.875 7 8.875C9.76855 8.875 12 11.1064 12 13.875H13.25C13.25 11.3018 11.6704 9.08984 9.44141 8.13281C10.606 7.34424 11.375 6.00635 11.375 4.5C11.375 2.09033 9.40967 0.125 7 0.125ZM7 1.375C8.7334 1.375 10.125 2.7666 10.125 4.5C10.125 6.2334 8.7334 7.625 7 7.625C5.2666 7.625 3.875 6.2334 3.875 4.5C3.875 2.7666 5.2666 1.375 7 1.375Z" fill="#1C1C1C"/>
</svg>
