<svg width="16" height="20" viewBox="0 0 16 20" fill="none" xmlns="http://www.w3.org/2000/svg">
<path d="M8 0.25C7.1709 0.25 6.5 0.920898 6.5 1.75C6.5 1.81445 6.51465 1.87598 6.52344 1.9375C3.93066 2.59961 2 4.95508 2 7.75V14.5C2 14.9248 1.6748 15.25 1.25 15.25H0.5V16.75H5.89062C5.80566 16.9873 5.75 17.2363 5.75 17.5C5.75 18.7334 6.7666 19.75 8 19.75C9.2334 19.75 10.25 18.7334 10.25 17.5C10.25 17.2363 10.1943 16.9873 10.1094 16.75H15.5V15.25H14.75C14.3252 15.25 14 14.9248 14 14.5V7.96094C14 5.14258 12.1162 2.62891 9.47656 1.9375C9.48535 1.87598 9.5 1.81445 9.5 1.75C9.5 0.920898 8.8291 0.25 8 0.25ZM7.67188 3.25C7.78027 3.24121 7.88867 3.25 8 3.25C8.04688 3.25 8.09375 3.25 8.14062 3.25C10.5898 3.32324 12.5 5.4707 12.5 7.96094V14.5C12.5 14.7637 12.5557 15.0127 12.6406 15.25H3.35938C3.44434 15.0127 3.5 14.7637 3.5 14.5V7.75C3.5 5.36816 5.33398 3.41992 7.67188 3.25ZM8 16.75C8.42188 16.75 8.75 17.0781 8.75 17.5C8.75 17.9219 8.42188 18.25 8 18.25C7.57812 18.25 7.25 17.9219 7.25 17.5C7.25 17.0781 7.57812 16.75 8 16.75Z" fill="black"/>
</svg>
