<svg width="18" height="18" viewBox="0 0 18 18" fill="none" xmlns="http://www.w3.org/2000/svg">
<path d="M15.75 0.0234375C15.1758 0.0234375 14.6133 0.246094 14.1797 0.679688L6.75 8.08594L6.58594 8.25L6.53906 8.48438L6.02344 11.1094L5.78906 12.2109L6.89062 11.9766L9.51562 11.4609L9.75 11.4141L9.91406 11.25L17.3203 3.82031C18.1846 2.95605 18.1846 1.54395 17.3203 0.679688C16.8867 0.246094 16.3242 0.0234375 15.75 0.0234375ZM15.75 1.47656C15.9258 1.47656 16.0986 1.56738 16.2656 1.73438C16.5996 2.06836 16.5996 2.43164 16.2656 2.76562L9 10.0312L7.71094 10.2891L7.96875 9L15.2344 1.73438C15.4014 1.56738 15.5742 1.47656 15.75 1.47656ZM0 3V18H15V8.10938L13.5 9.60938V16.5H1.5V4.5H8.39062L9.89062 3H0Z" fill="white"/>
</svg>
