<svg width="20" height="20" viewBox="0 0 14 14" fill="none" xmlns="http://www.w3.org/2000/svg">
<path d="M11.7699 0.108398C11.2102 0.108398 10.6504 0.325622 10.2159 0.760069L1.76093 9.21508L1.72751 9.38218L1.14268 12.3231L0.975586 13.1084L1.76093 12.9413L4.70181 12.3565L4.8689 12.3231L13.3239 3.86804C14.1928 2.99914 14.1928 1.62896 13.3239 0.760069C12.8895 0.325622 12.3297 0.108398 11.7699 0.108398ZM11.7699 1.12768C12.0394 1.12768 12.3109 1.25091 12.572 1.512C13.0921 2.03208 13.0921 2.59603 12.572 3.11611L12.1877 3.48372L10.6003 1.89632L10.9679 1.512C11.229 1.25091 11.5005 1.12768 11.7699 1.12768ZM9.84834 2.64824L11.4357 4.23565L4.96916 10.7022C4.61826 10.0171 4.06685 9.46572 3.38176 9.11483L9.84834 2.64824ZM2.69667 9.98372C3.33789 10.2427 3.84127 10.7461 4.10026 11.3873L2.34577 11.7382L2.69667 9.98372Z" fill="#5C8AEA"/>
</svg>
