<svg width="140" height="109" viewBox="0 0 140 109" fill="none" xmlns="http://www.w3.org/2000/svg">
<g clip-path="url(#clip0_11172_22520)">
<rect x="40" width="60" height="60" rx="2.29141" fill="url(#paint0_linear_11172_22520)"/>
<path d="M66.3988 23.4116H73.8988V52.4998H66.3988V23.4116Z" fill="white"/>
<path d="M75.0639 14.9999C75.0639 17.8166 72.7805 20.0999 69.9639 20.0999C67.1472 20.0999 64.8639 17.8166 64.8639 14.9999C64.8639 12.1833 67.1472 9.8999 69.9639 9.8999C72.7805 9.8999 75.0639 12.1833 75.0639 14.9999Z" fill="white"/>
</g>
<path d="M126.503 101.718C126.503 97.4867 129.296 94.4996 133.334 94.4996C137.068 94.4996 139.613 96.574 139.972 99.8652H136.598C136.211 98.3164 135.077 97.5143 133.473 97.5143C131.315 97.5143 129.877 99.1461 129.877 101.718C129.877 104.29 131.205 105.895 133.362 105.895C135.049 105.895 136.239 105.065 136.598 103.571H140C139.585 106.752 136.93 108.937 133.362 108.937C129.213 108.937 126.503 106.061 126.503 101.718Z" fill="#243B51"/>
<path d="M122.132 92.1763C120.97 92.1763 120.057 91.2636 120.057 90.1296C120.057 88.9956 120.97 88.1106 122.132 88.1106C123.238 88.1106 124.151 88.9956 124.151 90.1296C124.151 91.2636 123.238 92.1763 122.132 92.1763ZM120.445 108.577V94.9144H123.819V108.577H120.445Z" fill="#243B51"/>
<path d="M115.692 108.577H112.318V97.7355H109.69V94.9144H112.318V90.6552H115.692V94.9144H118.347V97.7355H115.692V108.577Z" fill="#243B51"/>
<path d="M100.148 108.937C97.2437 108.937 95.4736 107.25 95.4736 104.678C95.4736 102.161 97.299 100.584 100.535 100.335L104.628 100.031V99.727C104.628 97.8739 103.522 97.1271 101.807 97.1271C99.8158 97.1271 98.7095 97.9569 98.7095 99.3951H95.8331C95.8331 96.4357 98.267 94.4996 101.973 94.4996C105.652 94.4996 107.92 96.491 107.92 100.28V108.577H104.96L104.711 106.558C104.13 107.969 102.277 108.937 100.148 108.937ZM101.254 106.392C103.328 106.392 104.656 105.148 104.656 103.046V102.327L101.807 102.548C99.7052 102.742 98.9031 103.433 98.9031 104.539C98.9031 105.784 99.7329 106.392 101.254 106.392Z" fill="#243B51"/>
<path d="M74.9856 108.577H71.6114V94.9145H74.7091L74.9856 96.5187C75.6771 95.3847 77.06 94.4996 79.0237 94.4996C81.098 94.4996 82.5362 95.523 83.2553 97.0995C83.9468 95.523 85.5509 94.4996 87.6252 94.4996C90.9442 94.4996 92.7696 96.491 92.7696 99.644V108.577H89.423V100.529C89.423 98.5653 88.372 97.542 86.7679 97.542C85.136 97.542 83.8914 98.593 83.8914 100.833V108.577H80.5172V100.501C80.5172 98.593 79.4939 97.5696 77.8897 97.5696C76.2856 97.5696 74.9856 98.6206 74.9856 100.833V108.577Z" fill="#243B51"/>
<path d="M54.3335 101.718C54.3335 97.4589 57.4035 94.5272 61.6351 94.5272C65.8668 94.5272 68.9368 97.4589 68.9368 101.718C68.9368 105.978 65.8668 108.909 61.6351 108.909C57.4035 108.909 54.3335 105.978 54.3335 101.718ZM57.7077 101.718C57.7077 104.207 59.3119 105.895 61.6351 105.895C63.9584 105.895 65.5626 104.207 65.5626 101.718C65.5626 99.229 63.9584 97.5419 61.6351 97.5419C59.3119 97.5419 57.7077 99.229 57.7077 101.718Z" fill="#243B51"/>
<path d="M51.596 108.577H48.2495V88H51.596V108.577Z" fill="#243B51"/>
<path d="M38.9111 108.937C34.8454 108.937 31.9966 105.978 31.9966 101.746C31.9966 97.459 34.7901 94.4996 38.8005 94.4996C42.8938 94.4996 45.4936 97.2378 45.4936 101.497V102.52L35.2049 102.548C35.4539 104.954 36.7261 106.171 38.9664 106.171C40.8195 106.171 42.0364 105.452 42.4236 104.152H45.549C44.9681 107.139 42.4789 108.937 38.9111 108.937ZM38.8281 97.2654C36.8368 97.2654 35.6198 98.3441 35.2879 100.391H42.1471C42.1471 98.51 40.8471 97.2654 38.8281 97.2654Z" fill="#243B51"/>
<path d="M28.1809 108.577H24.8067V97.7355H22.1792V94.9144H24.8067V90.6552H28.1809V94.9144H30.8361V97.7355H28.1809V108.577Z" fill="#243B51"/>
<path d="M10.6219 108.577H7.24762V94.9145H10.3729L10.6495 96.6846C11.5069 95.3017 13.1664 94.4996 15.0195 94.4996C18.449 94.4996 20.2191 96.6293 20.2191 100.169V108.577H16.8449V100.972C16.8449 98.676 15.7109 97.5696 13.9685 97.5696C11.8941 97.5696 10.6219 99.0079 10.6219 101.22V108.577Z" fill="#243B51"/>
<path d="M2.07433 92.1763C0.912707 92.1763 0 91.2636 0 90.1296C0 88.9956 0.912707 88.1106 2.07433 88.1106C3.18064 88.1106 4.09335 88.9956 4.09335 90.1296C4.09335 91.2636 3.18064 92.1763 2.07433 92.1763ZM0.387209 108.577V94.9144H3.76146V108.577H0.387209Z" fill="#243B51"/>
<defs>
<linearGradient id="paint0_linear_11172_22520" x1="29.5" y1="-1.5" x2="100" y2="63" gradientUnits="userSpaceOnUse">
<stop stop-color="#B721FF"/>
<stop offset="1" stop-color="#21D4FD"/>
</linearGradient>
<clipPath id="clip0_11172_22520">
<rect x="40" width="60" height="60" rx="2.29141" fill="white"/>
</clipPath>
</defs>
</svg>
