<svg width="180" height="131" viewBox="0 0 150 101" fill="none" xmlns="http://www.w3.org/2000/svg">
<g clip-path="url(#clip0_3487_39857)">
<path d="M50.9118 100.521C50.6158 100.331 50.2606 100.32 49.9527 100.166C48.6385 99.5145 47.9755 98.2476 48.1175 96.6611C48.2359 95.3587 49.2542 94.1629 50.5566 93.8432C52.522 93.3577 54.4519 94.5654 54.7124 96.6729C54.9374 98.5555 53.5876 100.308 51.8235 100.45C51.7998 100.45 51.7761 100.497 51.7524 100.521C51.4683 100.521 51.1841 100.521 50.9118 100.521ZM51.3972 99.8342C52.9364 99.8342 54.0375 98.6857 54.0375 97.0873C54.0375 95.5718 52.889 94.376 51.4564 94.376C49.9291 94.376 48.8161 95.5126 48.8161 97.0755C48.8043 98.662 49.8935 99.8342 51.3972 99.8342Z" fill="#01314C"/>
<path d="M89.0122 100.521C88.6688 100.355 88.29 100.331 87.9348 100.154C86.656 99.5024 85.993 98.2355 86.1469 96.6608C86.2653 95.3584 87.2836 94.1863 88.586 93.8429C90.5514 93.322 92.4695 94.6362 92.73 96.649C92.9904 98.6144 91.5578 100.331 89.841 100.461C89.8173 100.461 89.7936 100.509 89.77 100.532C89.5095 100.521 89.2608 100.521 89.0122 100.521ZM89.4266 99.8339C90.9658 99.8339 92.0551 98.6855 92.0551 97.0752C92.0551 95.5716 90.9066 94.3639 89.474 94.3639C87.9466 94.3639 86.8336 95.5005 86.8336 97.0752C86.8218 98.6736 87.9229 99.8339 89.4266 99.8339Z" fill="#01314C"/>
<path d="M67.6296 100.521C67.5112 100.391 67.3336 100.426 67.1916 100.379C66.2088 100.13 65.5221 99.3842 65.3682 98.3778C65.2261 97.4306 65.3208 96.4834 65.2972 95.5243C65.2853 95.0626 65.3209 94.6008 65.2853 94.1391C65.2617 93.8194 65.4392 93.8667 65.6287 93.8667C65.8181 93.8667 65.9839 93.8194 65.9839 94.1391C65.9602 95.3822 65.972 96.6254 65.9839 97.8568C65.9957 98.8395 66.5048 99.5736 67.4047 99.7749C68.8018 100.083 69.9858 99.4907 70.045 97.8686C70.0805 96.6373 70.0568 95.4059 70.045 94.1864C70.045 93.9141 70.1397 93.8549 70.3884 93.8667C70.6133 93.8786 70.7435 93.8667 70.7435 94.1746C70.7199 95.3704 70.7672 96.5544 70.7317 97.7502C70.6844 99.0053 70.1989 99.9288 69.0268 100.343C68.7781 100.426 68.494 100.391 68.2572 100.533C68.0322 100.521 67.8309 100.521 67.6296 100.521Z" fill="#01314C"/>
<path d="M65.9243 36.3486C64.4798 37.8996 63.0354 39.4388 61.5909 40.9899C62.9998 42.3751 64.397 43.7486 65.7941 45.122C68.6948 47.9636 71.6075 50.8052 74.5083 53.6586C74.7569 53.9072 74.8753 53.8717 75.1121 53.6468C76.971 51.8116 78.8298 49.9764 80.7242 48.1885C81.9201 47.0519 83.2816 46.1521 84.9274 45.7732C86.9047 45.3114 88.6451 45.8206 90.2435 46.9927C90.504 47.1822 90.3264 47.2769 90.2198 47.3834C89.1661 48.4964 88.1242 49.6093 87.0704 50.7223C83.1869 54.8544 79.3034 58.9866 75.4199 63.1187C75.2068 63.3437 75.1003 63.3673 74.8753 63.1305C69.5118 57.8144 64.1365 52.5101 58.7611 47.194C56.8194 45.2759 54.8895 43.3697 52.9477 41.4516C52.7938 41.3095 52.7109 41.1675 52.7109 40.9425C52.7228 32.181 52.7109 23.4194 52.7109 14.6697C52.7109 14.6223 52.7109 14.575 52.7228 14.5158C52.853 14.4921 52.8885 14.6105 52.9596 14.6697C61.6027 23.3484 70.234 32.0389 78.8772 40.7057C79.043 40.8715 79.0666 40.9543 78.889 41.1319C77.6695 42.3751 76.45 43.6302 75.2542 44.897C75.0529 45.1102 74.9582 45.0865 74.7687 44.897C71.8324 42.0436 68.8843 39.202 65.9243 36.3486Z" fill="#01314C"/>
<path d="M97.2417 48.7808C97.1469 48.6979 97.0641 48.6151 96.9812 48.5322C90.9428 42.4701 84.9163 36.3963 78.8779 30.3342C76.3324 27.7768 73.7749 25.2194 71.2175 22.662C71.0281 22.4725 70.9689 22.366 71.1938 22.141C72.4015 20.9215 73.5855 19.6783 74.7695 18.4233C74.9708 18.2102 75.0655 18.2338 75.2668 18.4233C78.0965 21.1701 80.9381 23.8933 83.756 26.6402C84.0165 26.9007 84.1585 26.9243 84.4309 26.6283C85.6622 25.2786 86.9172 23.9407 88.1841 22.6146C88.3972 22.3896 88.4328 22.2594 88.1841 22.0226C83.9336 17.8786 79.6949 13.7347 75.4562 9.57885C75.2786 9.41309 75.1957 9.40125 75.0063 9.57885C73.1237 11.4259 71.253 13.2729 69.3468 15.0844C67.9734 16.3986 66.3868 17.3932 64.4687 17.6655C63.0243 17.8668 61.6745 17.5116 60.4313 16.742C59.5315 16.1855 59.5552 16.2092 60.2774 15.4396C62.1836 13.4268 64.0662 11.4022 65.9724 9.37757C67.3695 7.88574 68.7785 6.40575 70.1874 4.92576C71.6793 3.33921 73.1829 1.75266 74.6629 0.154275C74.8287 -0.0233238 74.9116 -0.0588435 75.1128 0.130595C80.5 5.45856 85.8872 10.7865 91.2743 16.1145C93.2042 18.0207 95.1341 19.9269 97.0641 21.8213C97.218 21.9634 97.3009 22.1055 97.3009 22.3423C97.289 31.0683 97.3009 39.7825 97.289 48.5085C97.289 48.5914 97.3245 48.6743 97.2417 48.7808Z" fill="#0190CF"/>
<path d="M130.05 83.3886C130.05 86.7393 130.038 90.09 130.05 93.4407C130.061 94.6957 128.948 95.9271 127.729 96.1521C127.457 96.1994 127.184 96.2231 126.912 96.2231C122.875 96.2231 118.837 96.2231 114.788 96.2231C114.326 96.2231 113.983 96.0337 113.758 95.6074C113.557 95.2167 113.604 94.8615 113.864 94.53C114.101 94.234 114.433 94.1038 114.823 94.1038C118.553 94.1038 122.271 94.0801 126 94.1156C127.078 94.1274 128.001 93.4999 127.989 92.1265C127.989 90.2203 127.989 88.314 127.989 86.4078C127.989 86.3131 128.049 86.1829 127.93 86.1355C127.8 86.0763 127.776 86.2302 127.705 86.2894C127.09 86.9169 126.367 87.2603 125.467 87.2603C122.508 87.2484 119.548 87.2366 116.588 87.2603C115.013 87.2721 113.734 85.875 113.663 84.6437C113.639 84.2293 113.604 83.8267 113.604 83.4123C113.604 80.8431 113.592 78.2738 113.604 75.6927C113.604 75.0415 113.699 74.4021 114.089 73.8457C114.634 73.0879 115.344 72.5906 116.303 72.4841C117.049 72.4012 117.807 72.4367 118.553 72.4249C120.767 72.413 122.969 72.4249 125.183 72.4249C126.178 72.4249 127.09 72.638 127.753 73.455C127.8 73.5023 127.835 73.5615 127.907 73.5378C128.001 73.5141 127.978 73.4194 127.978 73.3484C127.978 73.0761 127.966 72.8038 128.155 72.567C128.451 72.1999 128.901 72.046 129.351 72.1999C129.742 72.3302 130.026 72.7327 130.026 73.1708C130.061 76.5925 130.061 79.9906 130.05 83.3886C130.05 83.3886 130.061 83.3886 130.05 83.3886ZM121.916 85.1528C123.372 85.1528 124.828 85.1528 126.284 85.1528C126.438 85.1528 126.58 85.1528 126.734 85.1054C127.528 84.8686 128.001 84.2293 128.001 83.2466C128.013 80.9851 128.025 78.7356 128.001 76.4741C127.989 75.1836 127.291 74.5324 125.988 74.5324C123.253 74.5324 120.518 74.5561 117.783 74.5205C116.789 74.5087 115.771 75.1007 115.771 76.486C115.771 78.7474 115.759 80.997 115.771 83.2584C115.782 84.4897 116.505 85.1528 117.736 85.1528C119.121 85.1528 120.518 85.1528 121.916 85.1528Z" fill="#0190CF"/>
<path d="M96.803 87.2605C94.7429 87.2605 92.6827 87.2605 90.6344 87.2605C89.261 87.2605 87.8047 86.0055 87.8047 84.4782C87.8165 81.3761 87.8047 78.2859 87.8047 75.1838C87.8047 73.917 89.1189 72.5672 90.3858 72.508C94.0207 72.3541 97.6555 72.4607 101.29 72.4488C102.782 72.4488 103.729 73.2658 104.096 74.4734C104.167 74.6984 104.227 74.9352 104.215 75.172C104.191 76.2731 104.286 77.3742 104.156 78.4753C104.014 79.6712 102.806 80.8196 101.646 80.867C97.8923 81.0209 94.1272 80.9025 90.3621 80.9262C90.0069 80.9262 89.8885 80.9854 89.9122 81.3643C89.9477 82.0747 89.924 82.7969 89.924 83.5073C89.924 84.3953 90.6818 85.153 91.5698 85.153C95.3586 85.153 99.1473 85.153 102.936 85.153C103.386 85.153 103.777 85.2714 104.037 85.6621C104.262 86.0055 104.286 86.3607 104.085 86.7159C103.883 87.0593 103.587 87.2605 103.173 87.2605C101.196 87.2605 99.2065 87.2605 97.2293 87.2605C97.0753 87.2605 96.9451 87.2605 96.803 87.2605ZM95.2638 78.8187C96.9214 78.8187 98.579 78.8305 100.237 78.8187C101.338 78.8068 101.942 78.2859 102.084 77.3861C102.155 76.9243 102.143 76.427 102.084 75.9653C101.977 75.1365 101.279 74.5445 100.462 74.5445C97.5253 74.5445 94.589 74.5445 91.6527 74.5445C90.6818 74.5445 89.924 75.3141 89.9122 76.2849C89.9122 76.9953 89.924 77.7176 89.9004 78.428C89.8885 78.7358 89.9596 78.8305 90.2911 78.8305C91.9487 78.8068 93.6062 78.8187 95.2638 78.8187Z" fill="#0190CF"/>
<path d="M64.6694 87.2607C62.6093 87.2607 60.5491 87.2489 58.5008 87.2607C57.1274 87.2726 55.6474 85.982 55.6593 84.4428C55.6711 81.3407 55.6593 78.2387 55.6711 75.1485C55.6711 73.9053 56.9972 72.5555 58.2404 72.4963C61.8752 72.3424 65.5101 72.4489 69.1449 72.4371C70.6368 72.4253 71.5958 73.2659 71.951 74.4617C72.0339 74.7459 72.0931 75.0419 72.0812 75.3497C72.0457 76.3916 72.1404 77.4217 72.0102 78.4636C71.8563 79.6595 70.6604 80.8079 69.4883 80.8553C65.7232 81.0092 61.9699 80.8908 58.2048 80.9145C57.8378 80.9145 57.7431 80.9974 57.7549 81.3644C57.7904 82.0748 57.7668 82.7971 57.7668 83.5075C57.7668 84.3954 58.5364 85.1414 59.4243 85.1414C63.2013 85.1414 66.9782 85.1414 70.7552 85.1414C71.1814 85.1414 71.5721 85.2361 71.8444 85.6031C72.0931 85.9465 72.1523 86.3017 71.9391 86.6806C71.726 87.0476 71.43 87.2489 71.0038 87.2489C68.8844 87.2607 66.7769 87.2607 64.6694 87.2607ZM63.0829 78.8188C64.7523 78.8188 66.4217 78.8188 68.0912 78.8188C69.4172 78.8188 70.0329 77.919 69.9737 76.9244C69.95 76.664 69.9737 76.3916 69.9737 76.1312C69.95 75.2668 69.216 74.5328 68.3635 74.5328C65.4035 74.5209 62.4435 74.5209 59.4835 74.5328C58.56 74.5328 57.7904 75.3261 57.7904 76.2377C57.7904 76.9836 57.8023 77.7177 57.7786 78.4636C57.7668 78.7478 57.8496 78.8188 58.1338 78.8188C59.7677 78.8188 61.4253 78.8188 63.0829 78.8188Z" fill="#0190CF"/>
<path d="M26.9363 87.2607C25.1603 87.2607 23.3725 87.2607 21.5965 87.2607C20.223 87.2607 18.7549 85.9819 18.7549 84.4428C18.7667 81.3525 18.7549 78.2742 18.7667 75.184C18.7667 73.9171 20.081 72.5555 21.336 72.4963C24.8998 72.3424 28.4518 72.4489 32.0156 72.4371C33.5903 72.4253 34.7151 73.3725 35.0585 74.6748C35.1295 74.959 35.1769 75.2668 35.1769 75.5628C35.1887 78.4281 35.1887 81.2815 35.1769 84.1468C35.1769 85.7215 34.277 86.8699 32.7734 87.2251C32.6313 87.2607 32.4774 87.2607 32.3235 87.2607C30.5238 87.2607 28.7359 87.2607 26.9363 87.2607ZM26.96 85.1532C28.4163 85.1532 29.8726 85.1532 31.3289 85.1532C32.2761 85.1532 33.0457 84.4428 33.0575 83.4956C33.0812 81.0802 33.0812 78.6531 33.0575 76.2377C33.0457 75.2787 32.2761 74.5446 31.3052 74.5446C28.4044 74.5446 25.5155 74.5446 22.6147 74.5446C21.6201 74.5446 20.8742 75.3142 20.8624 76.3087C20.8624 78.6767 20.8624 81.0447 20.8624 83.4245C20.8624 84.4072 21.6083 85.1532 22.591 85.1532C24.0473 85.1532 25.5036 85.1532 26.96 85.1532Z" fill="#0190CF"/>
<path d="M6.9383 87.2599C5.02023 87.2599 3.10216 87.2599 1.18409 87.2599C0.473696 87.2599 0.0237782 86.8691 0.0119383 86.2416C0.0119383 85.6141 0.497375 85.1524 1.18409 85.1524C3.00744 85.1405 4.81895 85.1524 6.6423 85.1524C8.28805 85.1524 9.9338 85.1168 11.5677 85.1642C12.4083 85.1879 13.2845 84.3472 13.2016 83.5421C13.1543 83.0922 13.2253 82.6305 13.1779 82.1924C13.1069 81.5175 12.3965 80.9373 11.6743 80.9373C8.86821 80.9373 6.0503 80.9373 3.24424 80.9373C1.93001 80.9373 0.899933 80.4282 0.284257 79.2206C0.106658 78.8654 9.83711e-05 78.4746 0.0119383 78.0721C0.0237782 77.1367 0.0474581 76.1895 9.83709e-05 75.2542C-0.0591013 73.8689 1.17225 72.5902 2.48648 72.5073C2.90088 72.4836 3.30344 72.46 3.71784 72.46C7.12774 72.46 10.5376 72.46 13.9594 72.46C14.3975 72.46 14.8118 72.5192 15.096 72.898C15.321 73.2059 15.392 73.5611 15.2144 73.9163C15.0131 74.307 14.7053 74.5556 14.2435 74.5556C12.065 74.5556 9.8746 74.5556 7.69605 74.5556C6.39366 74.5556 5.09127 74.5556 3.77704 74.5556C2.818 74.5556 2.11945 75.2542 2.13129 76.2132C2.13129 76.6513 2.08393 77.1012 2.16681 77.5274C2.32072 78.3681 3.0548 78.8535 4.03751 78.8535C6.79622 78.8535 9.55492 78.889 12.3136 78.8417C13.5568 78.818 14.9658 79.8362 15.167 80.9965C15.4157 82.4647 15.463 83.9565 15.1434 85.4247C14.8947 86.5495 13.7818 87.2954 12.6333 87.2954C10.7271 87.2599 8.83269 87.2599 6.9383 87.2599Z" fill="#0190CF"/>
<path d="M133.59 79.8367C133.59 77.67 133.59 75.4915 133.59 73.3248C133.59 72.7091 133.898 72.3302 134.513 72.1881C135.07 72.0579 135.674 72.496 135.709 73.0643C135.709 73.0998 135.709 73.1353 135.709 73.1827C135.733 73.3129 135.626 73.4905 135.78 73.5497C135.934 73.6089 135.982 73.3958 136.076 73.3129C136.704 72.7209 137.473 72.4486 138.314 72.4486C141.167 72.4368 144.009 72.4249 146.862 72.4486C148.402 72.4605 149.562 73.2656 149.964 74.7574C150 74.864 150.012 74.9705 150.012 75.0889C150.012 78.9132 150.012 82.7375 150.012 86.5736C150.012 87.1301 149.621 87.5445 149.076 87.58C148.508 87.6155 148.07 87.2603 147.975 86.7039C147.928 86.4197 147.916 86.1356 147.916 85.8514C147.916 82.7138 147.881 79.5762 147.94 76.4387C147.964 75.3139 147.004 74.5206 146.057 74.5324C143.287 74.5798 140.516 74.5798 137.734 74.5324C136.645 74.5088 135.721 75.2073 135.721 76.5689C135.721 79.8841 135.697 83.1993 135.733 86.5026C135.745 87.2011 135.011 87.8997 134.158 87.4261C133.756 87.2012 133.602 86.846 133.602 86.396C133.59 84.2056 133.59 82.0271 133.59 79.8367Z" fill="#0190CF"/>
<path d="M45.5127 87.5685C45.0154 87.5685 44.7076 87.3672 44.5063 87.0001C43.05 84.2888 41.6055 81.5775 40.1492 78.8543C39.2731 77.2204 38.3969 75.5746 37.5208 73.9407C37.284 73.5026 37.1182 73.0645 37.4379 72.6028C37.9233 71.9161 38.8468 72.0108 39.2612 72.7804C39.9953 74.1538 40.7175 75.5391 41.4398 76.9125C42.6948 79.2923 43.9498 81.6722 45.2167 84.052C45.2759 84.1704 45.2996 84.3835 45.4772 84.3717C45.6193 84.3598 45.6311 84.1704 45.7022 84.052C47.6794 80.3224 49.6448 76.581 51.6103 72.8396C52.072 71.9634 52.9363 71.9753 53.3981 72.5199C53.7059 72.8751 53.7059 73.2777 53.5047 73.6684C52.889 74.8524 52.2615 76.0245 51.634 77.1967C50.5447 79.245 49.4554 81.2815 48.3543 83.3298C47.7031 84.5493 47.0519 85.7688 46.4007 86.9883C46.1876 87.379 45.8797 87.5921 45.5127 87.5685Z" fill="#0190CF"/>
<path d="M77.7171 73.5264C77.8592 73.5146 77.9184 73.4554 77.9776 73.3962C78.6643 72.6858 79.5286 72.4371 80.4877 72.4371C81.8729 72.4371 83.2464 72.4371 84.6317 72.4371C84.8211 72.4371 84.9987 72.4608 85.1881 72.4963C85.8038 72.6384 86.0761 73.0291 86.0051 73.704C85.9577 74.1658 85.5196 74.5328 84.9632 74.5328C83.3529 74.5328 81.7545 74.5328 80.1443 74.5328C79.7062 74.5328 79.2563 74.4618 78.8182 74.6512C78.096 74.9709 77.7171 75.5037 77.7171 76.2733C77.7171 79.5885 77.7171 82.9036 77.7171 86.207C77.7171 86.4438 77.6934 86.6806 77.6106 86.9055C77.4685 87.3318 76.9238 87.6278 76.4503 87.5449C75.9648 87.462 75.5978 87.0713 75.5978 86.5977C75.5859 84.9283 75.5859 83.2588 75.5859 81.5894C75.5859 78.807 75.5859 76.0128 75.5859 73.2304C75.5859 72.6739 75.8701 72.3069 76.3555 72.1767C77.0304 71.9872 77.6461 72.4608 77.7053 73.1831C77.7171 73.3014 77.7171 73.408 77.7171 73.5264Z" fill="#0190CF"/>
<path d="M107.909 79.8837C107.909 77.6933 107.909 75.4911 107.909 73.3007C107.909 72.6377 108.335 72.1167 108.916 72.1404C109.437 72.1641 110.017 72.4719 110.017 73.3007C110.017 77.6697 110.017 82.0268 110.017 86.3957C110.017 87.0824 109.555 87.5678 108.927 87.556C108.288 87.556 107.909 87.1298 107.909 86.3838C107.909 84.229 107.909 82.0623 107.909 79.8837Z" fill="#0190CF"/>
<path d="M100.9 99.0526C100.9 98.1646 100.9 97.2766 100.9 96.4005C100.9 95.6546 100.912 94.9205 100.888 94.1746C100.877 93.8904 100.995 93.8668 101.232 93.8549C101.516 93.8431 101.528 93.9733 101.528 94.1864C101.528 96.1163 101.528 98.0462 101.516 99.988C101.516 100.106 101.634 100.32 101.409 100.355C101.22 100.391 101.019 100.402 100.865 100.201C100.202 99.3368 99.5268 98.4843 98.8638 97.6318C98.2362 96.8386 97.6087 96.0453 96.9812 95.252C96.922 95.181 96.8865 95.0389 96.7681 95.0863C96.6378 95.1336 96.7089 95.2639 96.7089 95.3467C96.7089 96.8978 96.697 98.4606 96.7089 100.012C96.7089 100.248 96.697 100.355 96.401 100.367C96.0814 100.379 96.0695 100.237 96.0695 99.988C96.0814 98.0699 96.0695 96.1519 96.0814 94.2338C96.0814 94.1154 95.963 93.8786 96.1998 93.8667C96.401 93.8549 96.6378 93.7484 96.8154 93.997C97.5258 94.9205 98.2481 95.8203 98.9703 96.7438C99.586 97.5253 100.202 98.3067 100.817 99.0882C100.841 99.0763 100.865 99.0645 100.9 99.0526Z" fill="#01314C"/>
<path d="M40.7054 98.9579C41.4513 99.6683 42.3393 99.988 43.3694 99.834C43.9022 99.763 44.3758 99.3604 44.4231 98.9224C44.4942 98.2712 44.2692 97.8804 43.6298 97.6673C43.0142 97.4661 42.3748 97.3358 41.7591 97.1345C40.9303 96.8622 40.5159 96.3294 40.5041 95.5953C40.4923 94.731 41.1671 93.9733 42.067 93.8194C42.9905 93.6654 43.8548 93.8194 44.6244 94.3521C44.7191 94.4232 45.0033 94.4587 44.7783 94.6837C44.6481 94.8139 44.6362 95.1573 44.2692 94.8849C43.618 94.3995 42.8484 94.1982 42.0433 94.435C41.4987 94.5889 41.1908 94.9678 41.179 95.4414C41.1671 95.9387 41.4513 96.3176 41.9959 96.5189C42.6116 96.7438 43.2865 96.8149 43.9022 97.0635C45.0388 97.5134 45.4532 98.5435 44.873 99.5262C44.5178 100.118 43.9377 100.367 43.2865 100.438C42.3275 100.544 41.4276 100.319 40.6343 99.7393C40.2555 99.467 40.2555 99.467 40.5515 99.1236C40.6225 99.0644 40.6699 99.0171 40.7054 98.9579Z" fill="#01314C"/>
<path d="M105.163 98.9466C105.731 99.5386 106.453 99.8227 107.258 99.8819C107.684 99.9056 108.099 99.8227 108.466 99.5859C108.999 99.2426 109.058 98.1652 108.478 97.8573C108.016 97.6087 107.519 97.514 107.033 97.3719C106.773 97.3009 106.5 97.2298 106.252 97.1351C105.376 96.8273 104.961 96.2945 104.973 95.5012C104.985 94.7553 105.482 94.1396 106.299 93.891C107.341 93.5713 108.312 93.8081 109.2 94.4001C109.437 94.554 109.283 94.6606 109.176 94.779C109.082 94.8974 109.058 95.1223 108.797 94.921C108.122 94.4356 107.377 94.1988 106.536 94.4238C105.956 94.5777 105.648 94.9447 105.636 95.442C105.624 95.9511 105.92 96.3181 106.489 96.5313C107.092 96.7562 107.744 96.8154 108.347 97.0641C109.484 97.5258 109.898 98.544 109.318 99.5267C108.963 100.131 108.383 100.379 107.732 100.45C106.773 100.557 105.873 100.344 105.08 99.7635C104.701 99.4794 104.689 99.4912 105.009 99.1242C105.08 99.0532 105.115 99.0058 105.163 98.9466Z" fill="#01314C"/>
<path d="M75.9647 97.3954C75.9647 96.5192 75.9529 95.6431 75.9647 94.7669C75.9647 94.5183 75.8937 94.4354 75.645 94.4472C75.0886 94.4591 74.5439 94.4354 73.9874 94.4591C73.727 94.4709 73.7151 94.3525 73.7151 94.1512C73.7033 93.9381 73.7743 93.8789 73.9874 93.8789C75.5148 93.8907 77.0421 93.8907 78.5813 93.8789C78.8537 93.8789 78.8418 93.9973 78.8537 94.1867C78.8655 94.3999 78.7945 94.4591 78.5813 94.4591C78.0722 94.4472 77.5513 94.4709 77.0421 94.4472C76.7106 94.4354 76.5922 94.5183 76.5922 94.8735C76.6159 96.5902 76.5922 98.307 76.6041 100.024C76.6041 100.284 76.5685 100.391 76.2607 100.391C75.9647 100.391 75.9529 100.272 75.9529 100.036C75.9765 99.1477 75.9647 98.2715 75.9647 97.3954Z" fill="#01314C"/>
<path d="M58.1222 97.135C58.1222 96.1405 58.134 95.1577 58.1104 94.1632C58.1104 93.8909 58.2169 93.8672 58.4419 93.8672C58.6668 93.8672 58.7615 93.9027 58.7615 94.1632C58.7497 95.8681 58.7497 97.5731 58.7497 99.278C58.7497 99.7635 58.7497 99.7635 59.2588 99.7635C60.2179 99.7635 61.1887 99.7753 62.1478 99.7516C62.3964 99.7516 62.4556 99.8227 62.4556 100.071C62.4556 100.332 62.3727 100.379 62.1359 100.379C60.8927 100.367 59.6495 100.367 58.4182 100.379C58.1696 100.379 58.1104 100.32 58.1104 100.071C58.1222 99.0886 58.1222 98.1059 58.1222 97.135Z" fill="#01314C"/>
<path d="M110.183 67.4753C110.183 68.162 109.638 68.6711 108.928 68.6711C108.253 68.6711 107.685 68.091 107.696 67.4279C107.708 66.7886 108.336 66.1729 108.951 66.1847C109.638 66.1966 110.183 66.7649 110.183 67.4753Z" fill="#0190CF"/>
<path d="M82.0153 97.0872C82.0153 96.1045 82.0272 95.1336 82.0035 94.1509C81.9916 93.8312 82.1693 93.8667 82.3706 93.8549C82.5837 93.843 82.7021 93.8667 82.7021 94.1509C82.6902 96.1281 82.6902 98.1173 82.7021 100.095C82.7021 100.414 82.5363 100.367 82.3587 100.367C82.1693 100.367 82.0035 100.414 82.0153 100.095C82.0272 99.1 82.0153 98.0936 82.0153 97.0872Z" fill="#01314C"/>
</g>
<defs>
<clipPath id="clip0_3487_39857">
<rect width="150" height="100.521" fill="white"/>
</clipPath>
</defs>
</svg>
