<svg width="35" height="35" viewBox="0 0 35 35" fill="none" xmlns="http://www.w3.org/2000/svg">
<path d="M7.6875 7.6875V15.1875H9.5625V17.0625H11.4375V15.1875H15.1875V7.6875H7.6875ZM15.1875 15.1875V17.0625H17.0625V18.9375H13.3125V20.8125H7.6875V28.3125H15.1875V20.8125H20.8125V18.9375H18.9375V17.0625H22.6875V15.1875H24.5625V17.0625H26.4375V15.1875H28.3125V7.6875H20.8125V15.1875H15.1875ZM26.4375 17.0625V18.9375H28.3125V17.0625H26.4375ZM26.4375 18.9375H24.5625V20.8125H26.4375V18.9375ZM26.4375 20.8125V22.6875H28.3125V20.8125H26.4375ZM26.4375 22.6875H24.5625V20.8125H22.6875V22.6875H18V28.3125H19.875V24.5625H23.625V26.4375H25.5V24.5625H26.4375V22.6875ZM23.625 26.4375H21.75V28.3125H23.625V26.4375ZM24.5625 18.9375V17.0625H22.6875V18.9375H24.5625ZM13.3125 18.9375V17.0625H11.4375V18.9375H13.3125ZM9.5625 17.0625H7.6875V18.9375H9.5625V17.0625ZM17.0625 7.6875V11.4375H16.125V13.3125H17.0625V14.25H18.9375V11.4375H19.875V9.5625H18.9375V7.6875H17.0625ZM9.5625 9.5625H13.3125V13.3125H9.5625V9.5625ZM22.6875 9.5625H26.4375V13.3125H22.6875V9.5625ZM10.5 10.5V12.375H12.375V10.5H10.5ZM23.625 10.5V12.375H25.5V10.5H23.625ZM9.5625 22.6875H13.3125V26.4375H9.5625V22.6875ZM10.5 23.625V25.5H12.375V23.625H10.5ZM26.4375 26.4375V28.3125H28.3125V26.4375H26.4375Z" fill="white"/>
<rect x="0.5" y="0.5" width="34" height="34" rx="4.5" stroke="white" stroke-opacity="0.5"/>
</svg>
