<svg width="13" height="13" viewBox="0 0 13 13" xmlns="http://www.w3.org/2000/svg">
<path d="M0.101562 5.70628H5.46605V0.341797H0.101562V5.70628ZM1.21916 1.4594H4.34845V4.58868H1.21916V1.4594ZM7.25421 0.341797V5.70628H12.6187V0.341797H7.25421ZM11.5011 4.58868H8.37181V1.4594H11.5011V4.58868ZM0.101562 12.8589H5.46605V7.49444H0.101562V12.8589ZM1.21916 8.61205H4.34845V11.7413H1.21916V8.61205ZM2.11324 9.50613H3.45437V10.8472H2.11324V9.50613ZM2.11324 2.35348H3.45437V3.6946H2.11324V2.35348ZM10.607 3.6946H9.26589V2.35348H10.607V3.6946ZM11.7246 7.49444H12.6187V11.0708H9.04237V10.1767H8.14829V12.8589H7.25421V7.49444H9.93645V8.38853H11.7246V7.49444ZM11.7246 11.9648H12.6187V12.8589H11.7246V11.9648ZM9.93645 11.9648H10.8305V12.8589H9.93645V11.9648Z"/>
</svg>
