<svg width="174" height="14" viewBox="0 0 174 14" fill="none" xmlns="http://www.w3.org/2000/svg">
<path d="M0.86367 9.44922C0.951561 11.8223 2.75332 13.2549 5.62734 13.2549C8.58926 13.2549 10.3822 11.7432 10.3822 9.23828C10.3822 7.2959 9.30996 6.19727 6.85781 5.65234L5.55703 5.35352C4.18594 5.05469 3.62344 4.5625 3.62344 3.66602C3.62344 2.7168 4.40566 2.12793 5.6625 2.12793C6.90176 2.12793 7.70156 2.76953 7.79824 3.81543H10.1537C10.0746 1.54785 8.29043 0.0625 5.63613 0.0625C2.89394 0.0625 1.14492 1.56543 1.14492 3.92969C1.14492 5.81055 2.26992 7.02344 4.56387 7.54199L5.88223 7.84961C7.35 8.1748 7.9125 8.63184 7.9125 9.49316C7.9125 10.5215 7.04238 11.1807 5.67129 11.1807C4.22988 11.1807 3.3334 10.5479 3.21914 9.44922H0.86367ZM30.9471 7.62988V5.6875C30.9471 2.16309 29.1102 0.0625 26.0691 0.0625C23.0281 0.0625 21.1912 2.16309 21.1912 5.6875V7.62988C21.1912 11.1543 23.0281 13.2549 26.0691 13.2549C29.1102 13.2549 30.9471 11.1543 30.9471 7.62988ZM26.0691 11.04C24.5398 11.04 23.7312 9.88867 23.7312 7.60352V5.71387C23.7312 3.42871 24.5398 2.27734 26.0691 2.27734C27.5984 2.27734 28.407 3.42871 28.407 5.71387V7.60352C28.407 9.88867 27.5984 11.04 26.0691 11.04ZM46.6867 10.5127H46.5725L43.9621 0.317383H41.2639L45.0695 13H48.0227L51.8283 0.317383H49.3322L46.6867 10.5127ZM71.1979 10.8467H65.7047V7.58594H70.8727V5.59082H65.7047V2.4707H71.1979V0.317383H63.1998V13H71.1979V10.8467ZM87.4912 8.33301L89.7236 13H92.5361L89.9961 7.91992C91.376 7.375 92.2461 6.00391 92.2461 4.36035C92.2461 1.84668 90.5586 0.317383 87.7988 0.317383H83.1934V13H85.6807V8.33301H87.4912ZM85.6807 2.35645H87.4736C88.8799 2.35645 89.7061 3.1123 89.7061 4.36914C89.7061 5.65234 88.8623 6.41699 87.4473 6.41699H85.6807V2.35645ZM112.152 10.8467H106.659V7.58594H111.827V5.59082H106.659V2.4707H112.152V0.317383H104.154V13H112.152V10.8467ZM132.33 13V10.8555H129.702V2.46191H132.33V0.317383H124.578V2.46191H127.206V10.8555H124.578V13H132.33ZM151.278 8.84277C151.278 10.2051 150.469 11.0137 149.133 11.0137C147.56 11.0137 146.751 9.98535 146.751 7.95508V5.3623C146.751 3.34082 147.551 2.30371 149.098 2.30371C150.337 2.30371 151.207 3.17383 151.269 4.50977H153.809C153.738 1.74121 151.972 0.0625 149.168 0.0625C146.039 0.0625 144.211 2.00488 144.211 5.3623V7.95508C144.211 11.3125 146.039 13.2549 149.168 13.2549C151.972 13.2549 153.818 11.541 153.818 8.89551V6.25879H148.913V8.13965H151.278V8.84277ZM167.123 13V4.51855H167.272L171.64 13H173.855V0.317383H171.693V8.74609H171.544L167.184 0.317383H164.961V13H167.123Z" fill="#00324D"/>
</svg>
