<svg width="77" height="12" viewBox="0 0 77 12" fill="none" xmlns="http://www.w3.org/2000/svg">
<path d="M4.0793 3.75586L5.32734 9H6.3L7.75312 0.544922H6.77461L6.26484 3.93164L5.75508 7.45312H5.69062L4.50703 2.47852H3.58125L2.39766 7.45312H2.3332L1.82344 3.93164L1.31367 0.544922H0.335155L1.78828 9H2.76094L4.00898 3.75586H4.0793ZM11.8121 9.11719C13.4937 9.11719 14.566 8.02148 14.566 6.30469V5.34375C14.566 3.62695 13.4937 2.53125 11.8121 2.53125C10.1305 2.53125 9.0582 3.62695 9.0582 5.34375V6.30469C9.0582 8.02148 10.1305 9.11719 11.8121 9.11719ZM11.8121 3.41016C12.902 3.41016 13.5816 4.18359 13.5816 5.43164V6.21094C13.5816 7.46484 12.902 8.23242 11.8121 8.23242C10.7223 8.23242 10.0426 7.46484 10.0426 6.21094V5.43164C10.0426 4.18359 10.7223 3.41016 11.8121 3.41016ZM19.3281 6.15234C19.3281 4.53516 20.1602 3.5625 21.5664 3.5625C21.9121 3.5625 22.3223 3.63281 22.6152 3.73828V2.61914C22.4043 2.53125 22.0586 2.47852 21.6953 2.47852C20.4707 2.47852 19.6797 3.08789 19.4453 4.26562H19.3164V2.64258H16.9434V3.43945H18.3555V8.20312H17.0723V9H21.2969V8.20312H19.3281V6.15234ZM26.2875 5.49609H26.2113V0.146484H25.2152V9H26.2113V6.68555L27.0902 5.8418L29.2582 9H30.4418L27.7992 5.16211L30.266 2.64258H29.059L26.2875 5.49609ZM36.8328 7.35938C36.657 7.91602 36.0652 8.25586 35.2625 8.25586C34.1785 8.25586 33.4871 7.50586 33.4871 6.33984V6.08203H37.8172V5.46094C37.8172 3.62109 36.8445 2.52539 35.1922 2.52539C33.575 2.52539 32.5027 3.62695 32.5027 5.30273V6.25781C32.5027 8.06836 33.5164 9.11719 35.2625 9.11719C36.5984 9.11719 37.6063 8.4082 37.7996 7.35938H36.8328ZM35.1863 3.38086C36.2117 3.38086 36.8328 4.11328 36.8328 5.32617H33.4871C33.4871 4.10742 34.1258 3.38086 35.1863 3.38086ZM42.632 6.15234C42.632 4.53516 43.4641 3.5625 44.8703 3.5625C45.216 3.5625 45.6262 3.63281 45.9191 3.73828V2.61914C45.7082 2.53125 45.3625 2.47852 44.9992 2.47852C43.7746 2.47852 42.9836 3.08789 42.7492 4.26562H42.6203V2.64258H40.2473V3.43945H41.6594V8.20312H40.3762V9H44.6008V8.20312H42.632V6.15234ZM57.7754 9.11133C58.7012 9.11133 59.3926 8.73047 59.6973 8.05078H59.7969V9.00586H60.7461V4.65234C60.7461 3.32812 59.8906 2.56641 58.3965 2.56641C57.0957 2.56641 56.1113 3.26367 55.9941 4.2832H56.9727C57.1367 3.73828 57.6523 3.42773 58.3848 3.42773C59.2695 3.42773 59.7559 3.86719 59.7559 4.66406V5.23828L58.0098 5.32617C56.5625 5.40234 55.7539 6.07031 55.7539 7.19531C55.7539 8.34961 56.5625 9.11133 57.7754 9.11133ZM58.0625 8.23828C57.2598 8.23828 56.7617 7.82812 56.7617 7.16016C56.7617 6.49805 57.2305 6.11719 58.1211 6.07617L59.7559 6V6.75C59.7559 7.59961 59.0234 8.23828 58.0625 8.23828ZM66.5863 2.53711C65.6781 2.53711 65.016 2.91211 64.682 3.61523H64.5766V2.64258H63.5922V11.1445H64.6059V8.01562H64.7172C64.9926 8.71289 65.6664 9.10547 66.5863 9.10547C68.057 9.10547 69.018 8.04492 69.018 6.41602V5.23242C69.018 3.59766 68.057 2.53711 66.5863 2.53711ZM66.2992 3.45117C67.348 3.45117 68.016 4.20117 68.016 5.37305V6.28711C68.016 7.45898 67.348 8.21484 66.2992 8.21484C65.2504 8.21484 64.5824 7.46484 64.5824 6.28711V5.37305C64.5824 4.20117 65.2504 3.45117 66.2992 3.45117ZM74.3543 2.53711C73.4461 2.53711 72.784 2.91211 72.45 3.61523H72.3445V2.64258H71.3602V11.1445H72.3738V8.01562H72.4852C72.7605 8.71289 73.4344 9.10547 74.3543 9.10547C75.825 9.10547 76.7859 8.04492 76.7859 6.41602V5.23242C76.7859 3.59766 75.825 2.53711 74.3543 2.53711ZM74.0672 3.45117C75.116 3.45117 75.784 4.20117 75.784 5.37305V6.28711C75.784 7.45898 75.116 8.21484 74.0672 8.21484C73.0184 8.21484 72.3504 7.46484 72.3504 6.28711V5.37305C72.3504 4.20117 73.0184 3.45117 74.0672 3.45117Z" fill="#00324D"/>
</svg>
