<svg width="14" height="14" viewBox="0 0 14 14" fill="none" xmlns="http://www.w3.org/2000/svg">
<path d="M8.45842 4.08331C8.63147 4.08331 8.80065 4.032 8.94454 3.93585C9.08843 3.8397 9.20058 3.70305 9.26681 3.54316C9.33304 3.38328 9.35036 3.20734 9.3166 3.03761C9.28284 2.86788 9.19951 2.71197 9.07713 2.58959C8.95476 2.46722 8.79885 2.38389 8.62912 2.35013C8.45939 2.31636 8.28345 2.33369 8.12357 2.39992C7.96368 2.46615 7.82703 2.5783 7.73088 2.72219C7.63473 2.86608 7.58342 3.03525 7.58342 3.20831C7.58342 3.44038 7.6756 3.66294 7.8397 3.82703C8.00379 3.99113 8.22635 4.08331 8.45842 4.08331V4.08331ZM8.3855 6.28904C8.48894 6.37188 8.61756 6.41689 8.75008 6.41665H9.91675C10.0715 6.41665 10.2198 6.35519 10.3292 6.24579C10.4386 6.13639 10.5001 5.98802 10.5001 5.83331C10.5001 5.6786 10.4386 5.53023 10.3292 5.42083C10.2198 5.31144 10.0715 5.24998 9.91675 5.24998H8.95461L7.65633 4.21092C7.55037 4.12585 7.41799 4.08052 7.28213 4.08278C7.14626 4.08505 7.01547 4.13476 6.9124 4.22331L4.87073 5.97331C4.80235 6.03195 4.74847 6.10562 4.71332 6.18856C4.67818 6.27151 4.66272 6.36146 4.66815 6.45138C4.67359 6.5413 4.69978 6.62873 4.74467 6.70683C4.78956 6.78493 4.85192 6.85158 4.92688 6.90154L6.41675 7.8954V9.91665C6.41675 10.0714 6.47821 10.2197 6.5876 10.3291C6.697 10.4385 6.84537 10.5 7.00008 10.5C7.15479 10.5 7.30316 10.4385 7.41256 10.3291C7.52196 10.2197 7.58342 10.0714 7.58342 9.91665V7.58331C7.5834 7.4873 7.55968 7.39277 7.51437 7.30812C7.46905 7.22347 7.40354 7.15131 7.32365 7.09805L6.56969 6.59547L7.63154 5.68547L8.3855 6.28904ZM10.5001 6.99998C10.0386 6.99998 9.58747 7.13683 9.20375 7.39322C8.82004 7.64961 8.52097 8.01402 8.34436 8.44038C8.16776 8.86674 8.12155 9.3359 8.21158 9.78852C8.30162 10.2411 8.52384 10.6569 8.85017 10.9832C9.17649 11.3095 9.59225 11.5318 10.0449 11.6218C10.4975 11.7118 10.9666 11.6656 11.393 11.489C11.8194 11.3124 12.1838 11.0134 12.4402 10.6296C12.6966 10.2459 12.8334 9.7948 12.8334 9.33331C12.8334 8.71447 12.5876 8.12098 12.15 7.6834C11.7124 7.24581 11.1189 6.99998 10.5001 6.99998V6.99998ZM10.5001 10.5C10.2693 10.5 10.0438 10.4316 9.85192 10.3034C9.66006 10.1752 9.51052 9.99296 9.42222 9.77978C9.33392 9.5666 9.31082 9.33202 9.35583 9.10571C9.40085 8.8794 9.51196 8.67152 9.67512 8.50835C9.83829 8.34519 10.0462 8.23408 10.2725 8.18906C10.4988 8.14405 10.7334 8.16715 10.9465 8.25545C11.1597 8.34375 11.3419 8.49329 11.4701 8.68515C11.5983 8.877 11.6667 9.10257 11.6667 9.33331C11.6667 9.64273 11.5438 9.93948 11.325 10.1583C11.1062 10.3771 10.8095 10.5 10.5001 10.5V10.5ZM3.50008 6.99998C3.03859 6.99998 2.58747 7.13683 2.20375 7.39322C1.82004 7.64961 1.52097 8.01402 1.34436 8.44038C1.16776 8.86674 1.12155 9.3359 1.21158 9.78852C1.30162 10.2411 1.52384 10.6569 1.85017 10.9832C2.17649 11.3095 2.59225 11.5318 3.04487 11.6218C3.49749 11.7118 3.96665 11.6656 4.39301 11.489C4.81937 11.3124 5.18379 11.0134 5.44018 10.6296C5.69657 10.2459 5.83342 9.7948 5.83342 9.33331C5.83342 8.71447 5.58758 8.12098 5.15 7.6834C4.71241 7.24581 4.11892 6.99998 3.50008 6.99998V6.99998ZM3.50008 10.5C3.26934 10.5 3.04377 10.4316 2.85192 10.3034C2.66006 10.1752 2.51053 9.99296 2.42222 9.77978C2.33392 9.5666 2.31082 9.33202 2.35583 9.10571C2.40085 8.8794 2.51196 8.67152 2.67512 8.50835C2.83829 8.34519 3.04617 8.23408 3.27248 8.18906C3.49879 8.14405 3.73337 8.16715 3.94655 8.25545C4.15973 8.34375 4.34194 8.49329 4.47013 8.68515C4.59833 8.877 4.66675 9.10257 4.66675 9.33331C4.66675 9.64273 4.54383 9.93948 4.32504 10.1583C4.10625 10.3771 3.8095 10.5 3.50008 10.5Z" fill="#0066B2"/>
</svg>
