<svg width="13" height="13" viewBox="0 0 13 13" fill="none" xmlns="http://www.w3.org/2000/svg">
<path d="M11.0188 8.53754L9.43128 8.35629C9.05003 8.31254 8.67503 8.44379 8.40628 8.71254L7.25628 9.86254C5.48753 8.96254 4.03753 7.51879 3.13753 5.74379L4.29378 4.58754C4.56253 4.31879 4.69378 3.94379 4.65003 3.56254L4.46878 1.98754C4.39378 1.35629 3.86253 0.881287 3.22503 0.881287H2.14378C1.43753 0.881287 0.850025 1.46879 0.893775 2.17504C1.22503 7.51254 5.49378 11.775 10.825 12.1063C11.5313 12.15 12.1188 11.5625 12.1188 10.8563V9.77504C12.125 9.14379 11.65 8.61254 11.0188 8.53754Z" fill="#5C8AEA"/>
</svg>
