<svg width="15" height="15" viewBox="0 0 15 15" fill="none" xmlns="http://www.w3.org/2000/svg">
<g id="local_offer_24px">
<path id="icon/maps/local_offer_24px" fill-rule="evenodd" clip-rule="evenodd" d="M13.3813 7.2375L7.75625 1.6125C7.53125 1.3875 7.21875 1.25 6.875 1.25H2.5C1.8125 1.25 1.25 1.8125 1.25 2.5V6.875C1.25 7.21875 1.3875 7.53125 1.61875 7.7625L7.24375 13.3875C7.46875 13.6125 7.78125 13.75 8.125 13.75C8.46875 13.75 8.78125 13.6125 9.00625 13.3813L13.3813 9.00625C13.6125 8.78125 13.75 8.46875 13.75 8.125C13.75 7.78125 13.6062 7.4625 13.3813 7.2375ZM8.125 12.5063L2.5 6.875V2.5H6.875V2.49375L12.5 8.11875L8.125 12.5063ZM3.125 4.0625C3.125 3.54473 3.54473 3.125 4.0625 3.125C4.58027 3.125 5 3.54473 5 4.0625C5 4.58027 4.58027 5 4.0625 5C3.54473 5 3.125 4.58027 3.125 4.0625Z" fill="#5C8AEA"/>
</g>
</svg>
