<svg width="25" height="16" viewBox="0 0 25 16" fill="none" xmlns="http://www.w3.org/2000/svg">
<path d="M10.0357 0.6875C7.20446 0.6875 4.69334 2.50833 3.79333 5.15833C1.65115 5.47161 0 7.30795 0 9.53607C0 11.9751 1.98711 13.9688 4.44336 13.9688H15.8081C17.8565 13.9688 19.5312 12.3032 19.5312 10.2548C19.5312 8.48054 18.2716 6.99553 16.6138 6.63538C16.2849 3.30569 13.4623 0.6875 10.0357 0.6875ZM10.0388 2.25C12.8005 2.25 15.0406 4.51442 15.0406 7.28082C15.0406 7.82301 14.9537 8.35758 14.7873 8.86774C14.431 9.96774 16.07 10.4215 16.3864 9.39264C16.4974 9.06608 16.5842 8.72395 16.6397 8.38098C17.4077 8.67551 17.9688 9.42435 17.9688 10.3173C17.9688 11.465 17.0353 12.4062 15.8798 12.4062H4.37927C2.82849 12.4062 1.5625 11.1474 1.5625 9.5849C1.5625 8.0224 2.82849 6.76202 4.37927 6.76202C5.12302 6.76202 5.82787 7.05851 6.35834 7.5921C7.14974 8.38898 8.35385 7.1845 7.55463 6.37903C6.97728 5.80481 6.26437 5.40637 5.48859 5.20715C6.27999 3.43684 8.05985 2.25 10.0388 2.25ZM23.0225 5.3811C22.4159 5.30068 21.7703 5.99275 22.2244 6.65369C22.9682 7.77244 23.3749 9.09133 23.3749 10.4562C23.3749 11.8132 22.9682 13.1397 22.2244 14.2663C21.8486 14.8108 22.2623 15.5312 22.8912 15.5312C23.16 15.5312 23.4139 15.4008 23.5748 15.1711C24.51 13.7758 25 12.1429 25 10.4562C25 8.76165 24.5092 7.12853 23.5733 5.74884C23.4219 5.52072 23.2246 5.40791 23.0225 5.3811ZM20.6848 6.70404C20.0739 6.62454 19.4327 7.31052 19.8868 7.97205C20.3922 8.70798 20.6451 9.56711 20.6451 10.4562C20.6451 11.346 20.393 12.1967 19.8868 12.9327C19.5188 13.4694 19.9018 14.1976 20.5612 14.1976C20.8292 14.1976 21.0823 14.0825 21.2433 13.8528C21.9253 12.8411 22.2717 11.6671 22.2717 10.4562C22.2717 9.23743 21.9253 8.06482 21.2433 7.06873C21.088 6.84255 20.8885 6.73054 20.6848 6.70404Z" fill="#5C8AEA"/>
</svg>
