<svg width="21" height="21" viewBox="0 0 21 21" fill="none" xmlns="http://www.w3.org/2000/svg">
<path d="M10.5 0.34375C4.9 0.34375 0.34375 4.9 0.34375 10.5C0.34375 16.1 4.9 20.6562 10.5 20.6562C16.1 20.6562 20.6562 16.1 20.6562 10.5C20.6562 4.9 16.1 0.34375 10.5 0.34375ZM10.5 1.90625C15.2383 1.90625 19.0938 5.76172 19.0938 10.5C19.0938 15.2383 15.2383 19.0938 10.5 19.0938C5.76172 19.0938 1.90625 15.2383 1.90625 10.5C1.90625 5.76172 5.76172 1.90625 10.5 1.90625ZM8.45532 7.375L5.33032 13.625H12.5447L15.6697 7.375H8.45532ZM9.41968 8.9375H13.1428L11.5803 12.0625H7.85718L9.41968 8.9375Z" fill="#5C8AEA"/>
</svg>
