<svg width="21" height="21" viewBox="0 0 21 21" fill="none" xmlns="http://www.w3.org/2000/svg">
<path d="M2.10156 0.148438L1.66211 0.563477L0.563477 1.66211L0.148438 2.10156L0.46582 2.61426L2.10156 5.34863L2.32129 5.73926H4.61621L7.74121 8.83984C4.94885 11.6444 1.39661 15.2089 1.27148 15.334C0.0477297 16.5577 0.0446781 18.5627 1.2959 19.7285C2.5166 20.934 4.50635 20.9645 5.66602 19.7285C5.67517 19.7194 5.68127 19.7133 5.69043 19.7041L10.5 14.8701L15.334 19.7285L15.4072 19.7773C16.634 20.934 18.5841 20.9492 19.7285 19.7285V19.7041H19.7529C20.9492 18.4803 20.9614 16.4906 19.7285 15.334L19.7041 15.3096L15.627 11.2568C18.3705 11.0005 20.5189 8.6842 20.5586 5.88574H20.583C20.5861 5.87048 20.583 5.85217 20.583 5.83691C20.583 5.82776 20.583 5.82166 20.583 5.8125C20.6593 4.90918 20.464 4.04553 19.9971 3.29785L19.46 2.46777L15.8223 6.10547L14.7236 4.95801L18.4346 1.24707L17.3603 0.807617C16.7317 0.539062 16.0054 0.34375 15.1875 0.34375C12.1846 0.34375 9.71875 2.80957 9.71875 5.8125C9.71875 6.13904 9.78894 6.42285 9.84082 6.71582C9.49902 7.05762 9.24267 7.33838 8.83984 7.74121L5.73926 4.64062V2.32129L5.34863 2.10156L2.61426 0.46582L2.10156 0.148438ZM15.1875 1.90625C15.2974 1.90625 15.3737 1.97034 15.4805 1.97949L12.5264 4.93359L13.0635 5.49512L15.2607 7.76562L15.7979 8.32715L18.8984 5.22656C18.9137 5.40662 19.0419 5.53784 19.0205 5.73926V5.8125C19.0205 7.96399 17.2657 9.71875 15.1143 9.71875C14.8274 9.71875 14.4795 9.65161 14.0889 9.57226L13.6738 9.49902L13.3809 9.79199L4.56738 18.6299H4.54297V18.6543C3.98755 19.2616 3.01709 19.2769 2.37012 18.6299V18.6055H2.3457C1.7384 18.05 1.72314 17.0796 2.37012 16.4326C2.66614 16.1366 8.40039 10.3535 11.208 7.5459L11.5254 7.22852L11.4033 6.78906C11.3392 6.53577 11.2812 6.09937 11.2812 5.8125C11.2812 3.66101 13.036 1.90625 15.1875 1.90625ZM2.3457 2.10156L4.17676 3.22461V4.00586L4.00586 4.17676H3.22461L2.10156 2.3457L2.3457 2.10156ZM13.7715 11.5986L18.6299 16.4326V16.457H18.6543C19.2616 17.0125 19.2769 17.9829 18.6299 18.6299H18.6055V18.6543C18.05 19.2616 17.0796 19.2769 16.4326 18.6299L11.5986 13.7715L13.7715 11.5986Z" fill="#5C8AEA"/>
</svg>
