<svg width="21" height="21" viewBox="0 0 21 21" fill="none" xmlns="http://www.w3.org/2000/svg">
<path d="M8.15625 0.34375C5.14417 0.34375 2.6875 2.80041 2.6875 5.8125C2.6875 7.69543 3.6488 9.3678 5.10449 10.3535C2.31824 11.5498 0.34375 14.3147 0.34375 17.5312H1.90625C1.90625 14.0706 4.69556 11.2812 8.15625 11.2812C9.83167 11.2812 11.3301 11.9679 12.4531 13.0391L8.7666 16.7256L8.71777 16.9697L8.18066 19.7285L7.93652 20.876L9.08398 20.6318L11.8428 20.0947L12.0869 20.0459L19.9727 12.1602C20.879 11.2538 20.879 9.74622 19.9727 8.83984C19.5179 8.38513 18.9137 8.15625 18.3125 8.15625C17.7235 8.15625 17.1284 8.37903 16.6768 8.81543L13.5762 11.916C12.8956 11.2629 12.09 10.7289 11.208 10.3535C12.6637 9.3678 13.625 7.69543 13.625 5.8125C13.625 2.80041 11.1683 0.34375 8.15625 0.34375ZM8.15625 1.90625C10.323 1.90625 12.0625 3.64575 12.0625 5.8125C12.0625 7.97925 10.323 9.71875 8.15625 9.71875C5.9895 9.71875 4.25 7.97925 4.25 5.8125C4.25 3.64575 5.9895 1.90625 8.15625 1.90625ZM18.3125 9.71875C18.5109 9.71875 18.7184 9.78284 18.874 9.93848C19.1853 10.2498 19.1853 10.7258 18.874 11.0371L11.3057 18.6055L9.91406 18.8984L10.207 17.5068L17.7754 9.93848C17.931 9.78284 18.1141 9.71875 18.3125 9.71875Z" fill="#5C8AEA"/>
</svg>
