<svg width="18" height="18" viewBox="0 0 18 18" fill="none" xmlns="http://www.w3.org/2000/svg">
<path d="M9 2.8125C6.80625 2.8125 5.0625 4.55625 5.0625 6.75C5.0625 8.12109 5.7431 9.31586 6.78955 10.0195C4.78688 10.8829 3.375 12.8776 3.375 15.1875H4.5C4.5 12.7125 6.525 10.6875 9 10.6875C11.1937 10.6875 12.9375 8.94375 12.9375 6.75C12.9375 4.55625 11.1937 2.8125 9 2.8125ZM9 3.9375C10.575 3.9375 11.8125 5.175 11.8125 6.75C11.8125 8.325 10.575 9.5625 9 9.5625C7.425 9.5625 6.1875 8.325 6.1875 6.75C6.1875 5.175 7.425 3.9375 9 3.9375ZM13.556 10.125V11.306C13.2185 11.3623 12.8815 11.5317 12.6002 11.7004L11.7565 10.8567L10.9688 11.6433L11.8125 12.4871C11.5875 12.7683 11.4754 13.1062 11.4192 13.5H10.125V14.625H11.306C11.3623 14.9625 11.5317 15.3004 11.7004 15.6379L10.8567 16.4817L11.6433 17.2683L12.4871 16.4246C12.7683 16.5933 13.1065 16.7627 13.444 16.819V18H14.569V16.819C14.9065 16.7627 15.2435 16.5933 15.5248 16.4246L16.3685 17.2683L17.1562 16.4817L16.3125 15.6379C16.5375 15.3567 16.6496 15.0188 16.7058 14.625H18V13.5H16.819C16.7627 13.1625 16.5933 12.8246 16.4246 12.4871L17.2683 11.6433L16.4817 10.8567L15.6379 11.7004C15.3567 11.5317 15.0185 11.3623 14.681 11.306V10.125H13.556ZM14.0625 12.375C15.0188 12.375 15.75 13.1062 15.75 14.0625C15.75 15.0188 15.0188 15.75 14.0625 15.75C13.1062 15.75 12.375 15.0188 12.375 14.0625C12.375 13.1062 13.1062 12.375 14.0625 12.375ZM14.0625 13.5C13.9922 13.5 13.9219 13.5176 13.856 13.5483C13.79 13.5791 13.7285 13.623 13.6758 13.6758C13.623 13.7285 13.5791 13.79 13.5483 13.856C13.5176 13.9219 13.5 13.9922 13.5 14.0625C13.5 14.2734 13.6582 14.4844 13.856 14.5767C13.9219 14.6074 13.9922 14.625 14.0625 14.625C14.3438 14.625 14.625 14.3438 14.625 14.0625C14.625 13.7812 14.3438 13.5 14.0625 13.5Z" fill="white" fill-opacity="0.8"/>
</svg>
