<svg width="19" height="19" viewBox="0 0 19 19" fill="none" xmlns="http://www.w3.org/2000/svg">
<path d="M14.902 2.85H4.09845C2.99086 2.85 2.43203 4.19379 3.21678 4.97854L7.42197 9.18521V13.6562C7.42197 14.0487 7.60674 14.4183 7.92072 14.6953L9.58322 15.9179C10.3956 16.4856 11.5782 15.9579 11.5782 14.9204V9.18521L15.7836 4.97854C16.5668 4.19538 16.0118 2.85 14.902 2.85ZM10.3313 8.66874V14.9031L8.66884 13.6562V8.66874L4.09697 4.09687H14.9032L10.3313 8.66874Z" fill="#000000"/>
<circle cx="14.5" cy="4.5" r="2.5" fill="#FF0000"/>
<path d="M15.8889 5.49723L15.4972 5.88889L14.5 4.89167L13.5028 5.88889L13.1111 5.49723L14.1083 4.5L13.1111 3.50278L13.5028 3.11111L14.5 4.10834L15.4972 3.11111L15.8889 3.50278L14.8916 4.5L15.8889 5.49723Z" fill="white"/>
</svg>
